 <svg xmlns="http://www.w3.org/2000/svg" viewBox="0 0 282.000000 296.000000"  preserveAspectRatio="xMidYMid meet">  <g transform="translate(0.000000,296.000000) scale(0.100000,-0.100000)" stroke="none"> <path d="M1325 2950 c-1302 -5 -1216 -1 -1272 -62 -56 -59 -53 15 -53 -1410 0 -1248 1 -1315 19 -1353 23 -51 79 -101 128 -114 26 -7 457 -11 1322 -11 l1283 0 -5 23 c-3 12 -10 36 -15 54 -9 27 -6 37 15 68 22 33 24 43 19 108 -4 40 -7 95 -7 122 -1 193 1 229 14 244 18 21 32 187 16 197 -6 3 -9 17 -6 30 2 14 0 27 -4 30 -14 9 -10 71 5 83 12 11 12 18 -5 54 -10 23 -19 52 -19 65 0 13 -6 30 -14 37 -7 8 -17 35 -20 60 -4 26 -14 49 -22 52 -20 8 -17 25 11 68 18 26 23 41 16 49 -6 8 -7 24 -3 42 5 16 7 71 7 123 -2 82 1 99 20 127 18 26 23 53 29 138 4 69 3 121 -5 148 -12 48 -5 116 16 144 19 25 19 170 1 204 -9 16 -12 42 -9 75 4 33 0 67 -11 99 -25 74 -30 129 -15 157 16 28 37 121 38 164 1 17 -6 41 -15 54 -14 19 -15 29 -5 63 7 21 19 42 27 45 8 3 14 11 14 19 0 11 -28 14 -152 12 -84 -2 -688 -5 -1343 -8z"/> </g> </svg>