 <svg xmlns="http://www.w3.org/2000/svg" viewBox="0 0 282.000000 295.000000"  preserveAspectRatio="xMidYMid meet">  <g transform="translate(0.000000,295.000000) scale(0.100000,-0.100000)" stroke="none"> <path d="M0 2934 c0 -7 6 -14 14 -17 8 -3 20 -24 27 -45 10 -34 9 -44 -5 -63 -9 -13 -16 -37 -15 -54 1 -43 22 -136 38 -164 15 -28 10 -83 -15 -156 -10 -32 -14 -67 -11 -100 3 -33 0 -60 -10 -78 -19 -38 -13 -166 12 -227 15 -39 16 -53 6 -102 -8 -37 -9 -96 -5 -164 6 -89 11 -110 29 -133 20 -23 22 -35 20 -121 -2 -52 2 -110 7 -128 7 -23 6 -37 -2 -47 -10 -12 -7 -21 14 -46 29 -34 33 -57 12 -65 -8 -3 -18 -24 -21 -47 -4 -23 -13 -52 -21 -64 -8 -12 -14 -32 -14 -44 0 -11 -7 -37 -16 -56 -14 -28 -15 -38 -4 -58 8 -14 10 -37 6 -57 -4 -18 -7 -43 -6 -55 0 -12 -5 -25 -10 -28 -14 -9 0 -175 17 -201 12 -20 15 -57 14 -239 0 -27 -3 -80 -7 -118 -5 -60 -3 -72 19 -110 24 -40 24 -45 11 -82 -7 -22 -14 -46 -14 -53 0 -10 256 -12 1303 -10 1437 3 1326 -2 1389 65 62 64 58 -22 58 1408 0 1156 -2 1310 -15 1343 -20 46 -50 79 -95 102 -34 17 -107 18 -1373 22 -998 2 -1337 0 -1337 -8z"/> </g> </svg>