<?xml version="1.0" encoding="utf-8"?>
<!-- Generator: Adobe Illustrator 26.2.1, SVG Export Plug-In . SVG Version: 6.00 Build 0)  -->
<svg version="1.1" id="Layer_1" xmlns="http://www.w3.org/2000/svg" xmlns:xlink="http://www.w3.org/1999/xlink" x="0px" y="0px"
	 viewBox="0 0 100 100" style="enable-background:new 0 0 100 100;" xml:space="preserve">
<style type="text/css">
	.st0{fill:#062656;}
</style>
<g>
	<g>
		<path d="M53.2,51.6c-2.3,1.9-4.7,3.8-7,5.7c-8.6,7-17.2,13.9-25.8,20.9C15.2,82.4,10,86.6,4.8,90.8c-1.6,1.3-3.5,1.2-4.7-0.4
			c5.7-4.6,11.3-9.2,17.1-13.8C8.8,63.5,7.1,49.6,13,35.1c4.1-10.2,11.3-17.6,21.2-22.4C54,3.1,75.6,10.5,86.5,24.2
			c-2.8,1.7-5.6,3.4-8.5,5.1c-4.1,2.4-8.3,4.7-12.5,7c-3,1.7-6.4,2.2-9.8,2.5c-5.9,0.4-11.8,0.7-17.7,0.9c-3.3,0.2-6.6,0.2-10,0.4
			C27.1,40.1,26,40.5,25,41c-1.3,0.6-2.5,1.4-3.7,2.1c-1.1,0.7-1.1,1-0.1,1.8c3.6,2.9,7.1,5.8,10.7,8.7c1.6,1.3,3.3,2.6,4.8,3.9
			c0.6,0.5,1.1,0.6,1.8,0.3c4.5-2.1,9.1-4.1,13.6-6.1c0.3-0.1,0.6-0.2,0.9-0.4C53.2,51.5,53.2,51.5,53.2,51.6z"/>
		<path d="M22.7,82.9c25.7-20.8,51.3-41.5,77-62.3c0.4,1.1-0.1,1.9-0.8,2.5c-2.3,2.2-4.7,4.3-7,6.5c-12.2,11.4-21.5,24.6-26,40.8
			c-0.8,2.8-2.8,4.3-4.9,5.9c-0.2,0.2-0.9-0.1-1.3-0.3c-3.3-2.6-6.6-5.3-9.8-8c-0.6-0.5-0.9-0.4-1.5,0C41,73.4,33.6,78.8,26.3,84.2
			c-0.9,0.7-1.5,0.8-2.3-0.1C23.6,83.7,23.2,83.3,22.7,82.9z"/>
	</g>
	<g>
		<path class="st0" d="M53.2,51.6c-2.3,1.9-4.7,3.8-7,5.7c-8.6,7-17.2,13.9-25.8,20.9C15.2,82.4,10,86.6,4.8,90.8
			c-1.6,1.3-3.5,1.2-4.7-0.4c5.7-4.6,11.3-9.2,17.1-13.8C8.8,63.5,7.1,49.6,13,35.1c4.1-10.2,11.3-17.6,21.2-22.4
			C54,3.1,75.6,10.5,86.5,24.2c-2.8,1.7-5.6,3.4-8.5,5.1c-4.1,2.4-8.3,4.7-12.5,7c-3,1.7-6.4,2.2-9.8,2.5
			c-5.9,0.4-11.8,0.7-17.7,0.9c-3.3,0.2-6.6,0.2-10,0.4C27.1,40.1,26,40.5,25,41c-1.3,0.6-2.5,1.4-3.7,2.1c-1.1,0.7-1.1,1-0.1,1.8
			c3.6,2.9,7.1,5.8,10.7,8.7c1.6,1.3,3.3,2.6,4.8,3.9c0.6,0.5,1.1,0.6,1.8,0.3c4.5-2.1,9.1-4.1,13.6-6.1c0.3-0.1,0.6-0.2,0.9-0.4
			C53.2,51.5,53.2,51.5,53.2,51.6z"/>
		<path class="st0" d="M22.7,82.9c25.7-20.8,51.3-41.5,77-62.3c0.4,1.1-0.1,1.9-0.8,2.5c-2.3,2.2-4.7,4.3-7,6.5
			c-12.2,11.4-21.5,24.6-26,40.8c-0.8,2.8-2.8,4.3-4.9,5.9c-0.2,0.2-0.9-0.1-1.3-0.3c-3.3-2.6-6.6-5.3-9.8-8c-0.6-0.5-0.9-0.4-1.5,0
			C41,73.4,33.6,78.8,26.3,84.2c-0.9,0.7-1.5,0.8-2.3-0.1C23.6,83.7,23.2,83.3,22.7,82.9z"/>
	</g>
</g>
</svg>
