<svg width="80" height="20" viewBox="0 0 80 20" fill="none" xmlns="http://www.w3.org/2000/svg">
<path fill-rule="evenodd" clip-rule="evenodd" d="M24.0278 8.68297H21.8751V1.86057L21.7404 2.1451V2.14171L18.6103 8.68297H16.6273L13.3984 1.86057V8.68297H8.82402L7.88225 6.8224H3.30712L2.36516 8.68297H0L3.98031 0H7.34374L11.111 8.3105V0H14.6757L14.7391 0.124334H14.7438L16.4414 3.53045L17.6604 6.08245L17.7036 5.95383L20.3944 0.000176928H24.0278V8.68297ZM4.11461 4.96165H7.07478L5.59508 1.48846L4.11461 4.96165Z" fill="#ba0202"/>
<path d="M33.3121 1.86057H28.0646V3.47301H33.1775V5.20942H28.0646V6.94656H33.3121V8.80659H25.7774V0.000176928H33.3121V1.86057Z" fill="#ba0202"/>
<path fill-rule="evenodd" clip-rule="evenodd" d="M42.9088 5.05905C42.9105 5.06044 42.9124 5.06162 42.9145 5.06277L42.9163 5.06379C42.9178 5.06466 42.9194 5.06555 42.921 5.06654C42.9719 5.11613 43.0154 5.1659 43.0526 5.21353C43.3103 5.52499 43.5187 5.98826 43.5292 6.66756C43.5296 6.6733 43.5299 6.679 43.5302 6.68469L43.5307 6.69268L43.5313 6.7027C43.5313 6.70948 43.5326 6.71537 43.5326 6.72232C43.5326 6.72431 43.5325 6.72607 43.5325 6.7278C43.5324 6.7295 43.5323 6.73117 43.5323 6.73303C43.5354 6.80135 43.5373 6.8711 43.5373 6.94656V8.68315H41.5195V7.69043C41.5195 7.19433 41.5195 6.44993 41.1152 5.95383C40.9881 5.83663 40.8594 5.75939 40.7193 5.70445C40.5177 5.58404 40.1355 5.58208 39.5012 5.58208H37.0786V8.68315H34.7918V0.000176928H39.9051C41.1152 0.000176928 41.9229 0.000176936 42.5959 0.372291C43.2552 0.737271 43.6534 1.34254 43.6685 2.30101C43.6373 3.62107 42.7182 4.34532 42.0574 4.58953C42.0574 4.58953 42.5063 4.67284 42.9088 5.05905ZM41.0953 3.48354C41.0651 3.53384 41.0295 3.57772 40.9902 3.61643C40.9835 3.62353 40.9774 3.62983 40.9724 3.63496C40.9702 3.63714 40.9682 3.6391 40.9665 3.64083C40.9648 3.64256 40.9633 3.64406 40.962 3.64527L40.9581 3.64908L40.9577 3.64747C40.9231 3.67655 40.8871 3.70224 40.8467 3.72115C40.5771 3.84548 40.1733 3.84548 39.7698 3.84548H37.0784V1.86057H39.7698C40.1733 1.86057 40.5769 1.86057 40.8467 1.9842C41.0171 2.0634 41.188 2.19398 41.255 2.40643L41.2563 2.40626C41.2571 2.40885 41.2576 2.41136 41.258 2.41383C41.2583 2.41567 41.2586 2.41748 41.2588 2.41929L41.2591 2.42155C41.2596 2.42592 41.2602 2.43031 41.2613 2.43498C41.2706 2.47083 41.2786 2.50794 41.2817 2.54807C41.3569 2.9853 41.2172 3.30569 41.0953 3.48354Z" fill="#ba0202"/>
<path d="M47.4396 8.68297H45.1521V0H47.4396V8.68297Z" fill="#ba0202"/>
<path fill-rule="evenodd" clip-rule="evenodd" d="M73.6764 0.12487V8.68297H70.7162L66.4108 2.10853V7.56627L66.3967 7.55343V8.68832H64.1236V8.68315H61.8361L61.0288 6.82258H56.3192L55.5119 8.80677H52.9556C51.8799 8.80677 50.5335 8.55899 49.7266 7.81476C48.9193 7.07054 48.5161 6.07817 48.5161 4.46591C48.5161 3.22559 48.7848 1.98437 49.7266 0.992363C50.3988 0.247598 51.6103 0.000176928 53.09 0.000176928H55.2433V1.86057H53.09C52.2827 1.86057 51.8799 1.9842 51.3406 2.35702C50.9377 2.72896 50.6684 3.47301 50.6684 4.34122C50.6684 5.33376 50.8031 5.95383 51.3406 6.44993C51.7452 6.82258 52.2829 6.94674 52.9556 6.94674H53.8973L56.9916 0.12469H60.3556L64.1235 8.43519V0.12487H67.4869L71.3881 6.2025V0.12487H73.6764ZM57.1267 4.96165L58.7414 1.48846L60.2217 4.96165H57.1267Z" fill="#ba0202"/>
<path fill-rule="evenodd" clip-rule="evenodd" d="M36.5407 16.7753H39.2323C41.2497 16.7753 43.1334 16.2787 43.1334 13.798C43.1334 13.4734 43.0924 13.1876 43.0218 12.9305C42.4345 11.6324 40.8848 11.3176 39.5009 11.3176H32.37L29.5441 14.1701L29.476 14.2353L28.9736 13.7301L26.5843 11.3174H17.8386V20H26.4496L29.4096 17.1465L29.5354 17.28L29.5443 17.2709L32.1182 20H36.5407V16.7753ZM34.2539 12.1851V19.2552L30.7554 15.6584L34.2539 12.1851ZM19.8571 13.0531V14.6659H24.8356V16.4028H19.8571V18.2639H25.3736L27.9299 15.6584L25.5082 13.0531H19.8571ZM40.8469 14.17C40.7122 13.4257 40.1735 13.0531 39.3658 13.0531H36.5409V15.2858H39.5013C40.3083 15.286 40.8469 14.914 40.8469 14.17Z" fill="#ba0202"/>
<path fill-rule="evenodd" clip-rule="evenodd" d="M53.0904 18.2638C53.0904 17.5192 52.9558 17.0222 52.687 16.651C52.5525 16.4028 52.149 16.154 51.4761 15.9069C52.149 15.6584 53.0904 14.9142 53.0904 13.5501C53.0904 12.5577 52.5525 11.9375 51.8803 11.565C51.2063 11.1932 50.2645 11.1932 49.1889 11.1932H44.0764V20H46.3636V16.7753H48.7852C49.5919 16.7753 50.1308 16.7753 50.3992 17.1465C50.8034 17.5192 50.8034 18.3868 50.8034 18.8838V19.9998H53.0904V18.2638ZM50.2646 15.0384C50.5337 14.914 50.6688 14.5415 50.6688 14.1701C50.8035 13.6744 50.5337 13.4259 50.2646 13.3018C49.9962 13.1776 49.5919 13.1776 49.1889 13.1776H46.4973V15.1625H49.1887C49.5918 15.1625 49.996 15.1625 50.2646 15.0384Z" fill="#ba0202"/>
<path d="M56.723 13.0531H61.9711V11.193H54.4364V19.9998H61.9711V18.1394H56.723V16.4027H61.8361V14.6657H56.723V13.0531Z" fill="#ba0202"/>
<path d="M63.316 20H67.6217C69.9089 20 71.1199 19.1311 71.1199 17.271C71.1199 16.403 70.8507 15.7828 70.4469 15.4105C69.9087 14.9142 69.1016 14.6661 67.8905 14.6661H66.6794C66.4106 14.6661 66.1419 14.6661 65.8721 14.5417C65.603 14.4186 65.3346 14.2945 65.3346 13.9222C65.3346 13.6744 65.3346 13.4261 65.603 13.3018C65.8723 13.1776 66.1419 13.1776 66.5453 13.1776H70.716V11.0692H66.2761C63.8541 11.0692 63.0468 12.4339 63.0468 13.6744C63.0468 16.1779 65.1987 16.2799 67.2166 16.3756C67.398 16.3842 67.5784 16.3928 67.756 16.403C68.1595 16.403 68.429 16.5272 68.5641 16.6511C68.6988 16.7755 68.8325 17.0224 68.8325 17.271C68.8325 17.5194 68.6988 17.767 68.5641 17.8913C68.2944 18.1396 68.0246 18.1396 67.6217 18.1396H63.316V20Z" fill="#ba0202"/>
<path d="M76.367 20C77.713 20 78.6554 19.6279 79.1929 19.1311C79.7308 18.6355 80 18.0155 80 17.271C80 17.1103 79.9824 16.9651 79.9584 16.826C79.6825 15.4979 78.4487 14.9891 78.076 14.8648C77.6691 14.733 77.2244 14.6661 76.6364 14.6661H75.4258C75.1565 14.6661 74.8873 14.6661 74.6186 14.5417C74.2143 14.4186 74.0796 14.2945 74.0796 13.9222C74.0796 13.6744 74.2143 13.4261 74.3498 13.3018C74.6185 13.1776 74.8873 13.1776 75.2912 13.1776H79.4624V11.0692H75.022C74.7724 11.0692 74.5444 11.0869 74.3287 11.1144C72.5243 11.4307 71.7927 12.4956 71.7927 13.6746C71.7927 16.1778 73.9451 16.2799 75.9624 16.3756C76.1439 16.3842 76.3243 16.3928 76.5019 16.403C76.9057 16.403 77.1745 16.5272 77.3092 16.6511C77.4433 16.7755 77.5783 17.0224 77.5783 17.271C77.5783 17.5194 77.4433 17.767 77.3092 17.8913C77.0404 18.1396 76.7707 18.1396 76.3668 18.1396H72.0624V20H76.367Z" fill="#ba0202"/>
</svg>
