<svg enable-background="new 0 0 512 512" height="512" viewBox="0 0 512 512" width="512" xmlns="http://www.w3.org/2000/svg" fill="#052656"><g><path d="m136 422c-8.271 0-15 6.729-15 15v75h30v-75c0-8.271-6.729-15-15-15z"/><path d="m256 422c-8.271 0-15 6.729-15 15v75h30v-75c0-8.271-6.729-15-15-15z"/><path d="m497 482h-16v-105h16c8.284 0 15-6.716 15-15s-6.716-15-15-15h-482c-8.284 0-15 6.716-15 15s6.716 15 15 15h16v105h-16c-8.284 0-15 6.716-15 15s6.716 15 15 15h76v-75c0-24.813 20.187-45 45-45s45 20.187 45 45v75h30v-75c0-24.813 20.187-45 45-45s45 20.187 45 45v75h30v-75c0-24.813 20.187-45 45-45s45 20.187 45 45v75h76c8.284 0 15-6.716 15-15s-6.716-15-15-15z"/><path d="m376 422c-8.271 0-15 6.729-15 15v75h30v-75c0-8.271-6.729-15-15-15z"/><path d="m66 282h25v35h42v-35h30v35h42v-35h30v35h42v-35h30v35h42v-35h30v35h42v-35h25c8.284 0 15-6.716 15-15s-6.716-15-15-15h-380c-8.284 0-15 6.716-15 15s6.716 15 15 15z"/><path d="m256 102c-75.387 0-139.127 50.82-158.762 120h317.525c-19.636-69.18-83.376-120-158.763-120z"/><path d="m307.951 78.977c-5.861-16.845-19.689-29.99-36.951-34.894v-29.083c0-8.284-6.716-15-15-15s-15 6.716-15 15v29.083c-17.263 4.903-31.091 18.049-36.951 34.894 16.729-4.613 34.148-6.977 51.951-6.977s35.222 2.364 51.951 6.977z"/></g></svg>