<svg id="Layer_4" height="512" viewBox="0 0 64 64" width="512" xmlns="http://www.w3.org/2000/svg" data-name="Layer 4"><circle cx="54" cy="16" fill="#e53a35" r="6"/><path d="m60 16a6.0048 6.0048 0 0 1 -6 6v-12a6.0048 6.0048 0 0 1 6 6z" fill="#d32e2e"/><path d="m60 6a9.8727 9.8727 0 0 1 -1.35 5 6.6744 6.6744 0 0 1 -.45.72 6.8929 6.8929 0 0 0 -.88-.72 5.9853 5.9853 0 0 0 -3.32-1 5.8979 5.8979 0 0 0 -3.31 1 5.9828 5.9828 0 0 0 -2.69 5h-30a10.0006 10.0006 0 0 1 10-10z" fill="#cfd8dc"/><path d="m60 6a9.8727 9.8727 0 0 1 -1.35 5h-1.33a5.9853 5.9853 0 0 0 -3.32-1 5.8979 5.8979 0 0 0 -3.31 1h-31.35a9.9933 9.9933 0 0 1 8.66-5z" fill="#b0bec5"/><path d="m55.4141 16 1.2929-1.293a1 1 0 0 0 -1.414-1.414l-1.293 1.2929-1.293-1.2929a1 1 0 0 0 -1.414 1.414l1.2929 1.293-1.2929 1.293a1 1 0 1 0 1.414 1.414l1.293-1.2929 1.293 1.2929a1 1 0 0 0 1.414-1.414z" fill="#fff"/><path d="m44 38 16-6v28h-16z" fill="#b0bec5"/><path d="m28.63 28h-21.26l.63-6h20z" fill="#42a047"/><path d="m28.63 28h-10.63v-6h10z" fill="#378e43"/><path d="m32 60h-28l3.37-32h21.26z" fill="#cfd8dc"/><path d="m32 60h-14v-32h10.63z" fill="#b0bec5"/><path d="m29.62 37.392 2.38 22.608h12v-28z" fill="#cfd8dc"/><path d="m13 48h10v12h-10z" fill="#42a047"/><path d="m18 48h5v12h-5z" fill="#378e43"/></svg>