<svg enable-background="new 0 0 512 512" height="512" viewBox="0 0 512 512" width="512" xmlns="http://www.w3.org/2000/svg" fill="#052656"><g><g><path d="m241.205 260.638h30.088v55.274h60.552v-212.579h-151.192v212.579h60.552zm0-126.392h30.088v33.732h-30.088zm0 62.679h30.088v33.732h-30.088z"/><path d="m293.125 465.458c0-20.078-16.387-36.413-36.529-36.413h-.695c-19.958 0-36.195 16.335-36.195 36.413v.172c.096 1.244.047 31.684.017 46.37h73.402z"/><path d="m256 0-90.552 73.245h181.104z"/><path d="m121.503 298.681 29.442-20.06v-80.25h-30.088v30.422h-30.088v-30.422h-30.088v30.422h-30.593v-30.422h-30.088v80.172l28.936 20.06v213.397h77.876 14.691z"/><path d="m481.912 228.793h-30.088v-30.422h-30.088v30.422h-30.593v-30.422h-30.088v80.172l28.936 20.06v213.397h16.697 75.871v-213.319l29.441-20.06v-80.25h-30.088z"/></g><path d="m360.991 346.002h-210.487v165.998h39.137c.016-15.091-.022-46.542-.022-46.542 0-36.669 29.734-66.501 66.282-66.501h.695c36.713 0 66.583 29.797 66.616 66.438v46.605h37.778v-165.998z"/></g></svg>