
<svg xmlns="http://www.w3.org/2000/svg" xmlns:xlink="http://www.w3.org/1999/xlink" x="0px" y="0px"
	 viewBox="0 0 798.5 515.9" enable-background="new 0 0 798.5 515.9" xml:space="preserve">
<g id="SVGRepo_iconCarrier">
	<path fill="#FFFFFF" d="M93,237.6c-7.1,6.2-16.3,8.8-30.9,8.8H56v-73.6h6.1c14.6,0,23.5,2.5,30.9,9c7.8,6.7,12.5,17,12.5,27.7
		C105.5,220.2,100.8,230.9,93,237.6z"/>
	<path fill="#FFFFFF" d="M700.4,205.2h-6.6v-33.7h7c14.1,0,21.7,5.7,21.7,16.5C722.5,199.2,714.9,205.2,700.4,205.2z"/>
	<path fill="#FFFFFF" d="M755.9,3.6H42.6C19.1,3.6,0,23.1,0,47.1v425.3c0,24,19.1,43.5,42.6,43.5h713.3
		c23.5,0,42.6-19.5,42.6-43.5V47.1C798.5,23.1,779.4,3.6,755.9,3.6L755.9,3.6z M671.3,154h33.5c26.1,0,41,12,41,32.9
		c0,17-9.4,28.2-26.4,31.5l36.5,46.9h-27.8l-31.3-44.7h-2.9v44.7h-22.6L671.3,154L671.3,154z M592.2,154h64.1v18.9h-41.5v24.7h40
		v18.8h-40v30h41.5v18.8h-64.1V154L592.2,154z M495.3,153.8l30.9,74.7l31.3-74.7H582l-50.1,114.1h-12.2l-49.2-114.1L495.3,153.8
		L495.3,153.8z M354.4,209.6c0-32.7,27.6-59.2,61.6-59.2c34,0,61.6,26.5,61.6,59.2v0c0,32.7-27.6,59.2-61.6,59.2
		C382,268.8,354.4,242.3,354.4,209.6L354.4,209.6L354.4,209.6z M257.5,209.4c0-32.4,27.5-58.2,61.7-58.2c9.7,0,17.9,2,27.8,6.8v25.5
		c-9.4-8.8-17.6-12.5-28.3-12.5c-21.2,0-37.9,16.9-37.9,38.2c0,22.5,16.2,38.4,38.9,38.4c10.2,0,18.2-3.5,27.3-12.2V261
		c-10.3,4.6-18.6,6.5-28.3,6.5C284.3,267.5,257.5,242.1,257.5,209.4L257.5,209.4z M220.3,220.6c-2.3-1.3-6.8-3.3-15.6-6.3
		c-21.2-7.3-28.5-15.2-28.5-30.5c0-18.2,15.6-31.9,36.1-31.9c12.7,0,24.3,4.2,34,12.3l-11.8,14.9c-5.9-6.3-11.5-9-18.2-9
		c-9.7,0-16.8,5.3-16.8,12.3c0,6,4,9.2,17.5,14c25.7,9,33.3,17,33.3,34.7c0,21.5-16.5,36.5-40,36.5c-17.2,0-29.7-6.5-40.1-21.2
		l14.6-13.5c5.2,9.7,13.9,14.8,24.7,14.8c10.1,0,17.5-6.7,17.5-15.7C227.1,227.4,224.9,223.4,220.3,220.6L220.3,220.6z M107.8,252.4
		c-11.1,8.9-23.8,12.8-41.3,12.8h-33V154h33.2c36.7,0,62.2,22.9,62.2,55.7C128.8,226.1,121,241.9,107.8,252.4L107.8,252.4z
		 M139.2,154h22.6v111.3h-22.6L139.2,154z M788.7,469.7c0,20.4-16.2,37-36.2,37H159.1c407.3-71.8,629.7-232.1,629.7-232.1
		L788.7,469.7L788.7,469.7z"/>
</g>
</svg>
