<svg width="104" height="90" viewBox="0 0 104 90" fill="none" xmlns="http://www.w3.org/2000/svg">
<circle cx="15.8233" cy="2.64706" r="2.64706" fill="#FFA33D"/>
<circle cx="36.9996" cy="2.64706" r="2.64706" fill="#FFA33D"/>
<circle cx="58.1768" cy="2.64706" r="2.64706" fill="#FFA33D"/>
<circle cx="58.1768" cy="23.8233" r="2.64706" fill="#FFA33D"/>
<circle cx="58.1768" cy="45.0001" r="2.64706" fill="#FFA33D"/>
<circle cx="58.1768" cy="66.1764" r="2.64706" fill="#FFA33D"/>
<circle cx="58.1768" cy="87.3529" r="2.64706" fill="#FFA33D"/>
<circle cx="36.9996" cy="23.8233" r="2.64706" fill="#FFA33D"/>
<circle cx="15.8233" cy="23.8233" r="2.64706" fill="#FFA33D"/>
<circle cx="15.8233" cy="87.3529" r="2.64706" fill="#FFA33D"/>
<circle cx="36.9996" cy="87.3529" r="2.64706" fill="#FFA33D"/>
<circle cx="36.9996" cy="66.1764" r="2.64706" fill="#FFA33D"/>
<circle cx="36.9996" cy="45.0001" r="2.64706" fill="#FFA33D"/>
<circle cx="15.8233" cy="45.0001" r="2.64706" fill="#FFA33D"/>
<circle cx="15.8233" cy="66.1764" r="2.64706" fill="#FFA33D"/>
<circle cx="79.3531" cy="2.64706" r="2.64706" fill="#FFA33D"/>
<circle cx="100.529" cy="2.64706" r="2.64706" fill="#FFA33D"/>
<circle cx="100.529" cy="23.8233" r="2.64706" fill="#FFA33D"/>
<circle cx="79.3531" cy="23.8233" r="2.64706" fill="#FFA33D"/>
<circle cx="79.3531" cy="45.0001" r="2.64706" fill="#FFA33D"/>
<circle cx="79.3531" cy="66.1764" r="2.64706" fill="#FFA33D"/>
<circle cx="79.3531" cy="87.3529" r="2.64706" fill="#FFA33D"/>
<circle cx="100.529" cy="87.3529" r="2.64706" fill="#FFA33D"/>
<circle cx="100.529" cy="45.0001" r="2.64706" fill="#FFA33D"/>
<circle cx="100.529" cy="66.1764" r="2.64706" fill="#FFA33D"/>
</svg>
