<svg id="Layer_1" enable-background="new 0 0 512 512" height="512" viewBox="0 0 512 512" width="512" xmlns="http://www.w3.org/2000/svg" fill="#192954"><g id="_x30_2_Driver"><g><path d="m167.524 420.065-41.623-66.887-37.654 10.513c-36.473 10.245-61.898 43.875-61.898 81.69v55.89c0 5.9 4.827 10.728 10.728 10.728h168.316l8.099-73.752c-16.906 4.682-35.921-1.981-45.968-18.182z"/><path d="m423.752 363.637-37.6-10.513-41.623 66.994c-10.255 16.466-29.947 22.848-46.021 18.076l8.099 73.806h168.315c5.9 0 10.728-4.827 10.728-10.728v-55.89c.001-37.815-25.423-71.446-61.898-81.745z"/><path d="m297.953 414.727c9.419 6.452 22.321 3.74 28.338-5.954l32.417-52.195-44.027-27.226-58.623 56.653h-.085l-5.437 3.715 5.418-3.713-58.616-56.656-44.039 27.226 32.427 52.195c6.017 9.694 18.909 12.405 28.328 5.954l5.538-3.796 16.642 16.642-8.421 76.595h56.373l-8.421-76.541 16.678-16.678z"/><path d="m125.955 93.088c5.847-6.168 14.161-9.923 23.225-9.923h213.532c9.064 0 17.378 3.754 23.279 9.976.178-.602 7.806-12.34 2.628-26.818-7.814-21.992-25.265-18.772-119.827-63.668-8.099-3.54-17.378-3.54-25.478 0-96.015 45.564-112.086 41.818-119.88 63.614-5.286 14.782 2.332 26.164 2.521 26.819z"/><path d="m362.712 104.621h-213.532c-4.934 0-9.226 3.325-10.406 8.153-3.287 13.231-3.648 22.149-3.648 33.846 0 7.51 2.98 14.814 9.585 20.367 2.532 87.501 31.397 115.006 70.5 148.219 8.497 7.263 19.334 11.261 30.516 11.261h20.704c11.183 0 22.021-3.999 30.506-11.254 38.203-32.557 67.551-58.965 70.385-148.266 5.819-4.941 9.602-12.285 9.602-20.703 0-9.44 0-18.291-3.809-33.524-1.176-4.774-5.468-8.099-10.403-8.099zm-79.701 194.273c-4.615 3.946-10.503 6.118-16.579 6.118h-20.704c-6.076 0-11.964-2.171-16.602-6.139-30.773-26.117-58.851-47.102-62.721-125.542h.903l25.156 24.405c10.942 10.62 25.371 16.467 40.658 16.467h45.86c15.233 0 29.661-5.847 40.603-16.413l25.263-24.459h.76c-3.904 75.076-28.598 96.609-62.597 125.563z"/></g></g></svg>