<?xml version="1.0" encoding="utf-8"?>
<!-- Generator: Adobe Illustrator 18.0.0, SVG Export Plug-In . SVG Version: 6.00 Build 0)  -->
<!DOCTYPE svg PUBLIC "-//W3C//DTD SVG 1.1//EN" "http://www.w3.org/Graphics/SVG/1.1/DTD/svg11.dtd">
<svg version="1.1" id="Layer_1" xmlns="http://www.w3.org/2000/svg" xmlns:xlink="http://www.w3.org/1999/xlink" x="0px" y="0px"
	 viewBox="0 0 180.7 109" style="enable-background:new 0 0 180.7 109;" xml:space="preserve">
<style type="text/css">
	.st0{fill:#1F95AE;}
</style>
<path class="st0" d="M18.7,103C10.2,100.3,4.9,94.9,3.4,86c0-0.2-0.1-0.3-0.2-0.5c0-1.3,0.1-2.5,0.1-3.8c0.6-1.8,1-3.8,1.7-5.5
	c1.8-4.1,4.9-7.2,8.7-9.4c2.5-1.4,2.9-3.4,2.7-6.3c-1.6,0.3-3.1,0.6-4.6,1c-1.9,0.5-3.8,1.3-5.8,0.7c-0.2,0-0.3-0.1-0.9-0.3
	C6.6,61,7.6,60,8.9,59.6c3.7-1.2,7.4-2.3,11.2-3.3c1.1-0.3,1.5-0.7,1.5-1.7c0-1.7-0.1-3.3-0.1-5c0-0.9,0-1.7,0.3-2.5
	c0.9-3.1,1.8-6.2,2.9-9.3c1.8,1.9,0.9,4.2,1.2,6.3c2.3,0.1,4.4,0.1,6.6,0.2c6.6,0.2,13.2,0.6,19.8,0.7c2.9,0,5.9-0.3,8.7-0.9
	c2.6-0.5,4.4-2.3,5.1-4.8c2.2-7.4,4.2-14.8,6.3-22.2c0.3-1.1,0.2-1.8-1.2-2.2c-1-0.3-2.2-0.7-2.1-2c0.1-1.4,1.2-2,2.6-2.1
	c5.4-0.6,10.7-1,16.1-1.7c4-0.5,8-1.4,12-2c3.8-0.5,7.5-1.1,11.3-1.2c5.8-0.1,11.5-0.9,17.3-1.7c1.6-0.2,3.1-0.4,4.7-0.6
	c1.7,0,3.4,0.1,5.2,0.1c3.6,0.7,7.2,1.5,10.8,2.1c6.8,1.1,13.6,1.8,20.6,1.6c0.9,0,1.8-0.1,2.9-0.2c0,0.4,0,0.8-0.1,1.2
	c-1.9,8.8-2.6,17.7-2.7,26.7c-0.1,4.8-1.1,9.4-2.9,13.9c-1.1,2.6-2.1,5.2-3,7.8c-0.2,0.7-0.2,1.4-0.3,2.1c0.1,0.1,0.3,0.2,0.4,0.3
	c0.5-0.6,1.2-1.2,1.6-1.9c0.9-1.6,1.6-3.3,2.4-5c0.4-1,1-1.4,2-0.9c0.1,0.1,0.3,0.1,0.4,0.1c2.4,0.6,2.9,1.4,2,3.8
	c-0.3,0.9-1,1.7-1.4,2.6c-0.5,1.2-1,2.5-1.4,3.8c-0.1,0.2,0,0.6,0.2,0.8c2.4,3.4,4.9,6.7,7.4,10c0.2,0.3,0.4,0.6,0.7,0.8
	c0,0.1,0,0.2,0,0.3c-1.4,0.7-2.6,0.7-3.5-1c-0.3-0.6-1.3-0.9-2-1.1c-0.9-0.2-1.9-0.1-3.2-0.1c0.7,1.3,1.2,2.6,2,3.7
	c1.5,2.3,3,4.6,3.5,7.3c1.5,7.1-2.5,18.5-13.2,22c-11.1,3.6-22.8-1.8-26.3-12.4c-1.4-4.2-0.9-8.2,0.9-12.2c0.9-2.1,2-4.2,3.1-6.5
	c-1.5,0-2.9-0.2-4.2,0c-0.6,0.1-1.5,0.9-1.6,1.5c-0.4,1.5-0.6,3.1-0.7,4.7c-0.1,3.3-0.3,3.5-3.5,3.4c-3.8-0.2-7.5-0.6-11.3-0.7
	c-1.9,0-3.8,0.4-5.6,0.6c-0.2,0-0.4,0.1-0.7,0.1c-3.2-0.2-6.5-0.4-9.7-0.6c-0.9,0-1.9,0.2-2.8,0.2c-0.4,0-0.9,0.1-1.3,0.1
	c-6.2-1-12.5-1-18.7-0.6c-1,0.1-2,0.6-2.9,0.9c-0.3,0.1-0.7,0.3-1,0.2c-2.3-0.5-4.7-0.9-7-1.6c-0.9-0.3-1.6-0.3-2.3,0.3
	c-1,0.8-2,1.6-3,2.3c-1.7,1.2-2.5,1.4-3.7-0.3c-2.1-3-4.9-2.5-7.8-2.1c-1.7,0.2-3.4,0.7-5.2,1.1c-0.3,1.7-0.5,3.6-0.9,5.4
	c-2.1,8.5-9,14.6-17.7,15.4c-0.4,0-0.8,0.2-1.2,0.2c-1.3,0-2.5-0.1-3.8-0.1C20.9,103.6,19.8,103.4,18.7,103z M83.9,44.6
	c4,0.3,7.9,0.2,11.5-1.9c0.9-0.5,2.2-0.4,3.3-0.5c3.5-0.2,7,0,10.4-0.6c2.5-0.4,4.9-1.7,7.3-2.8c2.1-1,4.1-2.2,6.4-3.4
	c0.2,3.4-1.9,6-2.4,9.2c1.2,0.1,2.4,0.3,3.6,0.3c4.4,0.1,8.9,0.2,13.3,0.4c0.4,0,0.7,0,1.1,0c3.6-0.2,4.9-1.6,4.4-5.2
	c-0.7-5.7-1.5-11.3-2.2-17c-0.3-2.3-0.3-4.7-0.5-7.2c-0.4,0-0.9,0-1.3,0c-20.3-0.2-40.5-0.5-60.8-0.8c-0.8,0-1.3,0.2-1.4,1
	c-0.2,1-0.5,1.9-0.9,3.2c0.9-0.7,1.6-1.2,2.3-1.6c1.2-0.7,2.2-0.3,2,1c-0.2,1.7-0.8,3.3-1.3,4.9c-0.1,0.2-0.6,0.4-0.7,0.4
	c-0.5-0.2-0.9-0.5-1.3-0.9c-0.4-0.5-0.7-1.1-1.3-1.6c-2.9,7.1-5.8,14.1-5.1,21.8c0.2,0.1,0.4,0.2,0.5,0.4c1.7-1.3,3.5-2.4,5-3.8
	c2.1-2,4.1-3.7,7-4.5c1.7-0.5,2.4-1.9,1.7-3.7c-0.4-1-1.3-1.9-2-2.8c-0.5-0.6-1.2-1.1-0.5-1.8c0.7-0.8,1.3-0.1,1.9,0.3
	c0.5,0.4,1,0.9,1.5,1.4c2.3,2.8,4.5,5.5,6.7,8.4c0.7,0.9,1.1,2,1.6,3c-1,0.7-1.7,0.3-2.1-0.4c-1.4-2.2-3.7-2.9-6.2-3.6
	c-0.2,2.3-2.1,3.1-3.6,4.3c-1.2,1-2.4,2-3.6,3c0,0.2,0.1,0.3,0.1,0.5C80.3,44.3,82.1,44.5,83.9,44.6z M145.4,17.1
	c-0.4,0-0.9,0.6-1,1c0,2.2-0.1,4.3,0.2,6.5c0.4,3.9,1,7.8,1.6,11.7c0.1,0.8,0.5,1.6,0.8,2.7c5.6-6,11.3-11.4,15.7-18.2
	C157.2,17.8,151.5,16.4,145.4,17.1z M71.5,49.7c-0.3,3.7-0.5,7.3-0.6,11c-0.1,3.9,0.5,4.8,4.5,5.3c4.7,0.7,9.4,1,14.1,0.2
	c1.6-0.3,2.7-1,2.8-2.8c0.3-4.6,0.7-9.2,1-13.8c0-0.5-0.2-1-0.3-1.7c-1.2,1-1.3,2.1-1.4,3.3c-0.2,3.3-0.2,6.7-0.5,10
	c-0.4,3.8,0,3.4-3.8,3.8c-4.3,0.4-8.6,0.3-12.8-0.8c-1.4-0.4-2-1.2-1.9-2.5c0.1-2.4,0.4-4.8,0.5-7.2c0.1-2.1,0.1-4.1,0-6.2
	c0-0.4-0.2-0.8-0.4-1.2c-0.2,0-0.3,0-0.5-0.1C72,48,71.6,48.8,71.5,49.7z M115,51.2c-0.3,4.6-0.5,9.3-0.7,13.9
	c-0.1,0.9,0.3,1.4,1.2,1.7c5.7,1.6,11.2,1.2,16.6-1.2c2-0.9,3.4-2.5,4.6-4.3c2.4-3.7,3.9-7.7,3.4-12.3c0-0.4-0.4-0.7-0.6-1
	c-0.2,0.3-0.5,0.6-0.6,0.9c-0.5,2.5-0.9,5-1.5,7.4c-0.2,0.9-0.6,1.7-0.9,2.6c-1.4,3.6-3.9,5.9-7.8,6.6c-3.8,0.7-7.5,1.1-11.3,0.2
	c-1.1-0.3-1.5-0.7-1.5-1.9c0.2-5.6,0.3-11.3,0.4-17c-0.1,0-0.2-0.1-0.3-0.1C115.7,48.2,115.1,49.7,115,51.2z M29.6,58.8
	C39.5,59.5,47,64.4,53,72c1.7,2.1,3.7,4,5.6,6c0.5,0.5,1.2,0.7,1.9,1.1c0.1-1.2-0.4-1.8-1.3-2.5c-2-1.7-4-3.5-5.5-5.6
	C48.6,63.4,41,59.7,32.5,57.2c-1.4-0.4-3-0.3-4.6-0.3c-0.6,0-1.3,0.5-1.9,0.7c0,0.2,0,0.3,0,0.5C27.3,58.4,28.5,58.8,29.6,58.8z
	 M11.8,75.3c3,1.7,5.8,3.3,9,5.1c-1.1-3.7-2.5-6.9-5.7-9.3C14,72.5,13,73.8,11.8,75.3z M40.2,85.7c-3.2-0.2-6.4-0.3-9.5-0.4
	c-0.3,0-0.6,0.4-1.1,0.8c3.1,1.7,6,3.3,9,4.9C39.2,89.2,39.6,87.6,40.2,85.7z M18.7,82.5c0.1-0.1,0.3-0.3,0.4-0.4
	c-0.5-0.3-0.9-0.6-1.4-0.8c-2-1.2-4-2.4-6.1-3.5c-1.1-0.6-1.8-0.2-2.1,1c-0.3,1.1-0.5,2.2-0.9,3.5C12.2,82.3,15.5,82.4,18.7,82.5z
	 M25.7,89c-0.3,3.4-0.5,6.5-0.8,10c2-0.4,3.7-0.8,5.7-1.3C29.2,94.5,28.1,91.6,25.7,89z M162.9,98.5c1.2-1.4,2.3-2.7,3.5-4
	c-2.7-1.6-5.4-3.1-8-4.7c-0.1,0.1-0.2,0.3-0.4,0.4C158.8,93.4,160.5,96.1,162.9,98.5z M40,83.4c-0.2-1.6-0.5-3.2-0.7-4.9
	c-3.5,0.9-6.6,2.2-9.3,4.3c0,0.1,0.1,0.3,0.1,0.4C33.4,83.3,36.6,83.3,40,83.4z M36.7,76.2c0.3-0.2,0.4-1,0.2-1.2
	c-0.8-1-1.8-1.8-3-3c-2,2.9-3.8,5.4-5.6,8c0.1,0.1,0.3,0.2,0.4,0.3C31.7,79.5,34.3,78.1,36.7,76.2z M22.4,98.8
	c0.5-3.2,1.1-6.3,0.1-9.6c-1.8,2.7-3.5,5.3-5.4,8.1C18.9,97.8,20.6,98.3,22.4,98.8z M18.1,70c0.7,1.3,1.2,2.2,1.7,3.2
	c0.8,1.5,1.6,3,2.4,4.5c0.2,0.4,0.6,0.7,0.9,1c0.1-0.4,0.4-0.7,0.4-1.1c0.1-2.7,0.1-5.5,0.2-8.7C21.9,69.2,20.2,69.6,18.1,70z
	 M29.2,74.7c0.6-0.9,1.1-1.9,1.8-2.7c0.8-0.9,0.4-1.5-0.5-1.8c-1.3-0.5-2.6-0.8-4.3-1.3c0.2,3.4-0.6,6.4-0.2,9.5
	c0.2,0,0.4,0.1,0.6,0.1C27.5,77.2,28.4,76,29.2,74.7z M9.2,84.7c0.2,1.6,0.3,3.2,0.5,5c3.3-1.3,6.5-2.4,9.4-4.4
	c0-0.1-0.1-0.2-0.1-0.4C15.7,84.8,12.5,84.7,9.2,84.7z M14.9,95.6c1.9-2.7,3.7-5.2,5.5-7.7C17,88.7,14,90.4,11,92.6
	C12.5,93.7,13.7,94.6,14.9,95.6z M147.3,99.3c0.8,0.3,1.5,0.5,2.2,0.7c2.3,0.6,2.8,0.3,3-2c0.2-2.2,0.3-4.4,0.5-6.6
	c-0.1-0.1-0.2-0.1-0.3-0.2C150.5,93.6,148.7,96.2,147.3,99.3z M153.8,71.6c-1.6,0.2-3.1,0.4-4.8,0.6c0.5,3.4,2.8,5.9,4.3,8.7
	c0.1,0,0.2-0.1,0.4-0.1C153.6,77.8,153.7,74.8,153.8,71.6z M154.6,100.7c1.9-0.2,3.7,0.1,5.2-1.7c-1.4-2.5-2.8-5-4.2-7.5
	c-0.1,0-0.3,0.1-0.4,0.1C155,94.6,154.8,97.6,154.6,100.7z M143.1,77.4c2,2.2,4.6,3.7,7.4,4.9c0.1-0.1,0.3-0.2,0.4-0.3
	c-1.4-2.7-2.9-5.3-4.5-8.4C145.1,75,144.2,76.1,143.1,77.4z M28.6,87.7c-0.1,0.1-0.2,0.1-0.3,0.2c1.3,2.8,2.6,5.5,4.1,8.6
	c1.5-1.2,2.9-2.2,4.4-3.4C33.9,91.2,31.2,89.5,28.6,87.7z M169,89.2c0.1-0.3-0.4-1.3-0.7-1.3c-2.8-0.2-5.5-0.2-8.4,0
	c2.4,1.6,4.9,3.2,7.5,4.9C167.9,91.5,168.6,90.4,169,89.2z M158.1,82.4c0.1,0.2,0.3,0.3,0.4,0.5c2.8-1.5,5.5-2.9,8.5-4.5
	c-1.2-1.3-2.1-2.4-3.4-3.8C161.7,77.3,159.9,79.8,158.1,82.4z M168.1,85.5c0.3,0,0.9-0.6,0.9-0.9c-0.1-1.3-0.4-2.5-0.6-4
	c-3.1,1.5-6.1,1.9-8.7,4.3C162.7,85.2,165.4,85.4,168.1,85.5z M161.7,73.1c-1.8-0.5-3.4-1-5.1-1.6c-0.2,3.1-0.5,6-0.7,9
	c0.1,0,0.3,0.1,0.4,0.1C158,78.2,159.8,75.7,161.7,73.1z M145,98c1.9-2.7,3.6-5.3,5.4-7.9c-0.1-0.1-0.1-0.2-0.2-0.3
	c-2.8,1.5-5.6,3-8.4,4.5C143,95.6,143.9,96.7,145,98z M139.7,86.9c0,1.6-0.5,3.3,1.3,4.7c2.5-1.4,5.1-2.8,7.7-4.2
	c0-0.1,0-0.2-0.1-0.3C145.6,87,142.7,86.9,139.7,86.9z M139.4,84.5c3-0.1,5.9-0.3,8.8-0.4c-2.1-1.9-4.3-3.5-7.1-4.2
	C140.5,81.5,140,82.9,139.4,84.5z M51.5,76.8c-1.8,0.2-3.6,0.7-5.3-0.6c-0.1,0.1-0.1,0.2-0.2,0.3c0.3,1.1,0.5,2.3,0.8,3.6
	c2.5-0.5,5-0.9,7.5-1.3C53.7,77.2,52.8,76.6,51.5,76.8z"/>
</svg>
