<?xml version="1.0"?>
<svg xmlns="http://www.w3.org/2000/svg" xmlns:xlink="http://www.w3.org/1999/xlink" version="1.1" id="Layer_1" x="0px" y="0px" viewBox="0 0 30 30" style="enable-background:new 0 0 30 30;" xml:space="preserve">
<style type="text/css">
	.st0{fill:#F7931E;}
	.st1{fill:#009245;}
	.st2{fill:#F0F0F0;}
	.st3{fill:#0071BC;}
</style>
<title>India (2)</title>
<g>
	<circle class="st0" cx="15" cy="15" r="15"/>
	<path class="st1" d="M30,15c0,8.3-6.7,15-15,15S0,23.3,0,15H30z"/>
	<path class="st2" d="M30,15c0-1.7-0.3-3.4-0.9-5H0.9c-1.2,3.2-1.2,6.8,0,10h28.3C29.7,18.4,30,16.7,30,15z"/>
	<g>
		<path class="st3" d="M15,11c-2.2,0-4,1.8-4,4c0,2.2,1.8,4,4,4c2.2,0,4-1.8,4-4C19,12.8,17.2,11,15,11z M15,18c-1.7,0-3-1.3-3-3    s1.3-3,3-3c1.7,0,3,1.3,3,3S16.7,18,15,18z"/>
		<circle class="st3" cx="15" cy="15" r="2"/>
	</g>
</g>
</svg>
