<svg height="64" viewBox="0 0 64 64" width="64" xmlns="http://www.w3.org/2000/svg" data-name="SOLID"><g fill="#062656"><path d="m46.71 53.37h-29.42c-.828 0-1.5-.671-1.5-1.5v-19.263c0-.829.672-1.5 1.5-1.5h29.42c.828 0 1.5.671 1.5 1.5v19.263c0 .829-.672 1.5-1.5 1.5zm-27.92-3h26.42v-16.263h-26.42z"/><path d="m51.663 34.106h-39.326c-.828 0-1.5-.671-1.5-1.5s.672-1.5 1.5-1.5h39.326c.828 0 1.5.671 1.5 1.5s-.672 1.5-1.5 1.5z"/><path d="m10.17 53.37c-.828 0-1.5-.671-1.5-1.5v-13.002c0-.829.672-1.5 1.5-1.5s1.5.671 1.5 1.5v13.002c0 .829-.672 1.5-1.5 1.5z"/><path d="m53.83 47.598c-.828 0-1.5-.671-1.5-1.5v-7.23c0-.829.672-1.5 1.5-1.5s1.5.671 1.5 1.5v7.23c0 .829-.672 1.5-1.5 1.5z"/><path d="m57.74 40.368h-11.03c-.828 0-1.5-.671-1.5-1.5s.672-1.5 1.5-1.5h11.03c.828 0 1.5.671 1.5 1.5s-.672 1.5-1.5 1.5z"/><path d="m17.29 40.368h-11.03c-.828 0-1.5-.671-1.5-1.5s.672-1.5 1.5-1.5h11.03c.828 0 1.5.671 1.5 1.5s-.672 1.5-1.5 1.5z"/><path d="m44.956 34.106h-25.912c-.828 0-1.5-.671-1.5-1.5v-6.824c0-.829.672-1.5 1.5-1.5h25.912c.828 0 1.5.671 1.5 1.5v6.824c0 .829-.672 1.5-1.5 1.5zm-24.412-3h22.912v-3.824h-22.912z"/><path d="m42 27.283c-.828 0-1.5-.671-1.5-1.5 0-4.687-3.813-8.5-8.5-8.5s-8.5 3.813-8.5 8.5c0 .829-.672 1.5-1.5 1.5s-1.5-.671-1.5-1.5c0-6.341 5.159-11.5 11.5-11.5s11.5 5.159 11.5 11.5c0 .829-.672 1.5-1.5 1.5z"/><path d="m32 17.283c-.828 0-1.5-.671-1.5-1.5v-10.783c0-.829.672-1.5 1.5-1.5s1.5.671 1.5 1.5v10.783c0 .829-.672 1.5-1.5 1.5z"/><path d="m40.594 12.5h-8.594c-.828 0-1.5-.671-1.5-1.5v-6c0-.829.672-1.5 1.5-1.5h8.594c.828 0 1.5.671 1.5 1.5v6c0 .829-.672 1.5-1.5 1.5zm-7.094-3h5.594v-3h-5.594z"/><g><path d="m24.479 53.37c-.828 0-1.5-.671-1.5-1.5v-19.264c0-.829.672-1.5 1.5-1.5s1.5.671 1.5 1.5v19.264c0 .829-.672 1.5-1.5 1.5z"/><path d="m32 53.37c-.828 0-1.5-.671-1.5-1.5v-19.264c0-.829.672-1.5 1.5-1.5s1.5.671 1.5 1.5v19.264c0 .829-.672 1.5-1.5 1.5z"/><path d="m39.521 53.37c-.828 0-1.5-.671-1.5-1.5v-19.264c0-.829.672-1.5 1.5-1.5s1.5.671 1.5 1.5v19.264c0 .829-.672 1.5-1.5 1.5z"/></g><rect height="10.13" rx="1.5" width="57" x="3.5" y="50.37"/></g></svg>