<svg width="114" height="158" viewBox="0 0 114 158" fill="none" xmlns="http://www.w3.org/2000/svg">
<path d="M106.24 145.2C105.33 144.63 104.42 144.09 103.47 143.57C102.97 143.29 102.57 143.09 102.06 142.82C101.57 142.57 101.09 142.34 100.6 142.11C98.65 141.22 96.7 140.47 94.75 139.76C90.85 138.34 86.97 137.08 83.13 135.74C80.89 134.96 78.67 134.16 76.47 133.31C75.45 128.92 74.47 123.86 72.33 121.37C69.42 118 64.23 115.08 59.72 113.64C60.49 117.86 62.81 124.37 65.71 127.74C66.24 128.36 66.89 128.98 67.6 129.6C65.32 128.55 63.07 127.45 60.87 126.26C58.83 125.16 56.84 123.98 54.9 122.74C55.29 117.12 56.54 109.94 54.88 105.92C52.92 101.17 48.29 96.07 43.86 92.86C43.17 97.77 43.34 105.75 45.31 110.5C46.6 113.62 49.43 117.27 51.78 120.65C48.13 118.1 44.67 115.28 41.49 112.15C39.12 109.83 36.92 107.34 34.87 104.72C36.78 99.37 40.07 92.67 39.57 88.27C38.99 83.16 35.94 76.99 32.56 72.69C30.55 77.22 28.52 84.95 29.1 90.05C29.48 93.39 31.18 97.65 32.52 101.53C30.58 98.76 28.81 95.87 27.25 92.87C26.79 91.98 26.33 91.08 25.9 90.18C25.46 89.26 25.04 88.35 24.66 87.44C23.88 85.6 23.2 83.72 22.6 81.81C22.28 80.77 21.99 79.72 21.72 78.67C25.45 74.4 30.91 69.39 32.04 65.14C33.36 60.17 32.78 53.32 31.21 48.08C27.68 51.56 22.98 58.02 21.66 62.98C20.87 65.95 20.83 70.04 20.69 73.86C20.46 72.59 20.25 71.32 20.09 70.05C19.31 63.95 19.26 57.76 19.73 51.59C24.06 48.12 31 44.2 33.04 40.12C35.25 35.71 36.03 29.15 35.58 23.92C31.59 26.5 25.91 31.65 23.7 36.06C22.04 39.37 21.14 44.59 19.98 48.75C20.08 47.78 20.19 46.81 20.31 45.84C21.24 38.58 22.76 31.37 24.89 24.34C28.81 22.46 32.08 19.19 33.83 14.84C35.67 10.26 35.36 5.19 34.17 0C30.17 2.6 26.03 6.38 24.18 10.95C22.43 15.31 22.5 19.94 24.04 24.01C22.85 27.11 21.86 30.28 20.99 33.49C20.37 35.76 19.84 38.06 19.38 40.37C19.67 36.28 20.32 31.58 19.85 28.2C19.17 23.32 15.43 16.62 12.47 12.9C10.37 17.71 9.01 24.17 9.7 29.06C10.33 33.59 15.69 39.54 18.67 44.23C18.6 44.68 18.51 45.13 18.44 45.58C17.49 51.83 17.06 58.18 17.32 64.53C16.4 59.9 16.12 53.62 14.63 49.63C12.82 44.8 7.5 38.83 3.64 35.7C2.6 41.11 2.69 48.01 4.49 52.84C6.21 57.45 13.38 62.46 17.44 66.64C17.52 67.88 17.61 69.11 17.75 70.34C18.15 74 18.82 77.64 19.77 81.21C18.35 78.25 16.89 75.29 15.26 73.25C11.94 69.1 4.79 64.94 0 63.11C0.69 68.73 2.99 75.47 6.31 79.63C9.23 83.28 16.78 85.79 22.11 88.34C22.13 88.39 22.15 88.44 22.17 88.5C22.56 89.47 22.98 90.43 23.41 91.37C23.84 92.33 24.29 93.26 24.76 94.19C26.21 97.09 27.83 99.91 29.63 102.63C27.16 99.92 24.62 97.12 22.22 95.46C17.71 92.34 9.42 90.36 4.14 89.97C6.49 95.31 10.77 101.29 15.28 104.41C19.32 107.2 27.76 107.4 33.81 108.38C35.5 110.5 37.29 112.55 39.19 114.49C40.95 116.29 42.81 117.99 44.73 119.61C41.41 117.78 37.96 115.85 35.05 115.03C29.77 113.54 21.29 114.34 16.17 115.68C20.12 119.97 26.1 124.25 31.38 125.74C36 127.05 43.8 124.64 49.8 123.57C52.68 125.66 55.68 127.59 58.77 129.35C58.17 129.24 57.59 129.14 57.03 129.1C52.11 128.66 44.73 130.79 40.43 132.84C44.65 135.98 50.65 138.76 55.57 139.2C59.41 139.54 64.98 136.85 69.78 134.89C73.72 136.64 77.72 138.22 81.73 139.69C85.59 141.12 89.46 142.45 93.23 143.88C95.11 144.6 96.97 145.34 98.73 146.17C99.17 146.38 99.6 146.59 100.02 146.82C100.42 147.03 100.92 147.3 101.31 147.53C102.15 148 102.99 148.51 103.81 149.04C107.07 151.16 110.03 153.7 112.46 156.64C112.64 156.86 112.81 157.09 112.99 157.31L113.96 151.34C111.61 148.98 109 146.95 106.24 145.2Z" fill="url(#paint0_linear_175_2283)"/>
<defs>
<linearGradient id="paint0_linear_175_2283" x1="-50.5" y1="100.5" x2="163" y2="100.5" gradientUnits="userSpaceOnUse">
<stop stop-color="#F9F3A3"/>
<stop offset="0.3125" stop-color="#E3CD7E"/>
<stop offset="1" stop-color="#B47A2B"/>
</linearGradient>
</defs>
</svg>
