<svg enable-background="new 0 0 480 480" height="512" viewBox="0 0 480 480" width="512" xmlns="http://www.w3.org/2000/svg" fill="#052656"><path d="m424 8v27c0 4.418-3.582 8-8 8h-352c-4.418 0-8-3.582-8-8v-27c0-4.418 3.582-8 8-8h352c4.418 0 8 3.582 8 8zm-218.96 148h-50.55c-4.418 0-8 3.582-8 8v187c0 4.418 3.582 8 8 8h50.55c4.418 0 8-3.582 8-8v-187c0-4.418-3.582-8-8-8zm-111.49 0h-50.55c-4.418 0-8 3.582-8 8v187c0 4.418 3.582 8 8 8h50.55c4.418 0 8-3.582 8-8v-187c0-4.418-3.582-8-8-8zm231.96 0h-50.55c-4.418 0-8 3.582-8 8v187c0 4.418 3.582 8 8 8h50.55c4.418 0 8-3.582 8-8v-187c0-4.418-3.582-8-8-8zm111.49 0h-50.55c-4.418 0-8 3.582-8 8v187c0 4.418 3.582 8 8 8h50.55c4.418 0 8-3.582 8-8v-187c0-4.418-3.582-8-8-8zm-429 219c-4.418 0-8 3.582-8 8v65c0 4.418 3.582 8 8 8h80.191c4.313 0 7.809-3.496 7.809-7.809 0-.069 0-65.206 0-65.275.015-4.342-3.381-7.916-7.723-7.916zm464 0h-80.277c-4.155 0-7.723 3.334-7.723 8v65.191c0 4.313 3.496 7.809 7.809 7.809h80.191c4.418 0 8-3.582 8-8v-65c0-4.418-3.582-8-8-8zm0-316h-464c-4.42 0-8 3.58-8 8v65c0 4.42 3.58 8 8 8h464c4.42 0 8-3.58 8-8v-65c0-4.42-3.58-8-8-8zm-112 316h-240c-4.42 0-8 3.58-8 8v89c0 4.42 3.58 8 8 8h240c4.42 0 8-3.58 8-8v-89c0-4.42-3.58-8-8-8z"/></svg>