<?xml version="1.0" encoding="utf-8"?>
<!-- Generator: Adobe Illustrator 18.0.0, SVG Export Plug-In . SVG Version: 6.00 Build 0)  -->
<!DOCTYPE svg PUBLIC "-//W3C//DTD SVG 1.1//EN" "http://www.w3.org/Graphics/SVG/1.1/DTD/svg11.dtd">
<svg version="1.1" id="Layer_1" xmlns="http://www.w3.org/2000/svg" xmlns:xlink="http://www.w3.org/1999/xlink" x="0px" y="0px"
	 viewBox="0 0 32 32" enable-background="new 0 0 32 32" xml:space="preserve">
<g display="none">
	<path display="inline" fill="#0065B3" d="M30.7,8.7c-0.8-1.7-2-3.1-3.6-4.2c-2.7-2-6.6-3-11.2-3s-8.4,1-11.2,3
		C3.3,5.6,2.1,7,1.3,8.7c-0.9,1.7-1.3,3.8-1.3,6c0,4.9,2,8.6,5.9,10.9c-0.5,1.9-1.2,3-1.2,3l-1.2,1.9l2.2,0h0c0,0,0,0,0,0
		c0.7,0,4-0.2,6.6-2.8c1.2,0.2,2.4,0.2,3.7,0.2c4.6,0,8.4-1,11.2-3c1.5-1.1,2.7-2.5,3.6-4.2c0.9-1.7,1.3-3.8,1.3-6
		C32,12.5,31.6,10.4,30.7,8.7z M25.7,22.9c-2.3,1.7-5.7,2.5-9.7,2.5c-1.4,0-2.7-0.1-3.9-0.3L11.4,25l-0.5,0.5
		c-1,1.1-2.1,1.8-3.1,2.1c0.3-0.7,0.5-1.5,0.7-2.4l0.2-1l-0.9-0.4c-3.6-1.8-5.4-4.8-5.4-9.1c0-3.6,1.3-6.4,3.8-8.2
		C8.6,4.9,12,4,16,4s7.4,0.9,9.7,2.5c2.5,1.8,3.8,4.6,3.8,8.2C29.5,18.3,28.2,21.1,25.7,22.9z"/>
	<g display="inline">
		<defs>
			<rect id="SVGID_1_" x="8.3" y="6.8" width="15.3" height="15.3"/>
		</defs>
		<clipPath id="SVGID_2_">
			<use xlink:href="#SVGID_1_"  overflow="visible"/>
		</clipPath>
		<g clip-path="url(#SVGID_2_)">
			<path fill="#0065B3" d="M16,6.8c-1.2,0-2.2,1-2.2,2.2v3.3h-3.3c-1.2,0-2.2,1-2.2,2.2c0,1.2,1,2.2,2.2,2.2h3.3v3.3
				c0,1.2,1,2.2,2.2,2.2c1.2,0,2.2-1,2.2-2.2v-3.3h3.3c1.2,0,2.2-1,2.2-2.2c0-1.2-1-2.2-2.2-2.2h-3.3V8.9C18.2,7.7,17.2,6.8,16,6.8z
				"/>
		</g>
	</g>
</g>
<g display="none">
	<path display="inline" fill="#0065B3" d="M21.8,31.8c-5.7-1.1-6.2-6.2-8.6-9.9c-2.8,3.5-4.5,7.8-9.5,8.8c2.3-3.3,4.6-6.7,7.1-10
		c1.1-1.5,1.3-2.7,0.3-4.4C9.4,13.5,8,10.5,6.4,7.5c1.9-0.3,3.6,0.2,4.5,2C14.5,16.8,18.1,24.2,21.8,31.8z"/>
	<path display="inline" fill="#0065B3" d="M20.5,12.7c0,2-1.3,3.9-2.7,4c-1.2,0.1-2.2-1.3-2.2-3c0-2,1.2-3.9,2.7-3.9
		C19.6,9.8,20.5,10.9,20.5,12.7z"/>
	<path display="inline" fill="#0065B3" d="M24.5,7.2c0,1.8-1,3.2-2.2,3.2c-1.5-0.1-1.7-1.3-1.8-2.5c0-1.7,1.1-3.2,2.3-3.2
		C23.9,4.7,24.5,5.6,24.5,7.2z"/>
	<path display="inline" fill="#0065B3" d="M25.2,2.6c0.1-1,0.2-2.3,1.7-2.4C28.1,0,28.3,1.1,28.3,2c0,1.1-0.2,2.4-1.7,2.5
		C25.4,4.6,25.2,3.7,25.2,2.6z"/>
</g>
<g display="none">
	<path display="inline" fill="#0065B3" d="M17.5,1.3c-6.6,0-12.4,4.5-14,11l-1-1.5c-0.4-0.6-1.2-0.8-1.8-0.5
		c-0.6,0.4-0.8,1.2-0.5,1.8c0,0,0,0.1,0.1,0.1l2.9,4.4C3.4,17,3.7,17.2,4,17.3c0.3,0.1,0.7,0,1-0.2l4.4-3c0.6-0.4,0.8-1.2,0.4-1.8
		c-0.4-0.6-1.2-0.8-1.8-0.4c0,0,0,0-0.1,0l-2,1.3c1.6-6.4,8-10.3,14.4-8.7s10.3,8,8.7,14.4c-1.3,5.3-6.1,9-11.5,9
		c-3.9,0-7.5-1.9-9.7-5.1c-0.4-0.6-1.2-0.8-1.8-0.4c-0.6,0.4-0.8,1.2-0.4,1.8c0,0,0,0,0,0.1c4.6,6.6,13.6,8.2,20.2,3.6
		c4-2.7,6.3-7.3,6.2-12.1C32,7.9,25.5,1.4,17.5,1.3L17.5,1.3z"/>
	<path display="inline" fill="#0065B3" d="M17.3,7.9c-0.7,0-1.3,0.6-1.3,1.3V16c0,0.4,0.1,0.7,0.4,0.9l4,4c0.5,0.5,1.4,0.5,1.9,0
		c0.5-0.5,0.5-1.4,0-1.9l-3.6-3.6V9.3C18.7,8.5,18.1,7.9,17.3,7.9L17.3,7.9z"/>
</g>
<g>
	<path fill="#0065B3" d="M16,0C9.4,0,4,5.4,4,12c0,11.2,10.7,19.4,11.2,19.7c0.5,0.3,1.1,0.3,1.6,0C17.3,31.4,28,23.2,28,12
		C28,5.4,22.6,0,16,0L16,0z M16,29c-2.4-2.1-9.3-8.7-9.3-16.9c0-5.2,4.2-9.3,9.3-9.3s9.3,4.2,9.3,9.3C25.3,20.2,18.4,26.9,16,29z"/>
	<path fill="#0065B3" d="M16,5.3c-3.7,0-6.7,3-6.7,6.7s3,6.7,6.7,6.7s6.7-3,6.7-6.7C22.7,8.3,19.7,5.3,16,5.3z M16,16
		c-2.2,0-4-1.8-4-4s1.8-4,4-4s4,1.8,4,4S18.2,16,16,16z"/>
</g>
</svg>
