<svg id="Layer_1" enable-background="new 0 0 512 512" height="512" viewBox="0 0 512 512" width="512" xmlns="http://www.w3.org/2000/svg"><g clip-rule="evenodd" fill-rule="evenodd"><path d="m255.987 512c81.716 0 148.364-27.438 148.364-61.077 0-33.669-66.649-61.107-148.364-61.107-81.686 0-148.334 27.438-148.334 61.107-.001 33.639 66.648 61.077 148.334 61.077z" fill="#76c64f"/><path d="m255.987 389.816c75.455 0 137.73 23.185 147.136 53.199h-147.136l-48.436-49.844c15.186-2.157 31.482-3.355 48.436-3.355z" fill="#5fa040"/><path d="m255.987 443.015-126.198-129.853c-69.344-71.381-69.314-188.204.06-259.585 69.374-71.411 182.902-71.441 252.246-.06l.09.12c69.374 71.351 69.345 188.174-.03 259.585z" fill="#f00"/><path d="m191.076 243.129c-35.856-35.855-35.856-93.997 0-129.852 35.855-35.855 93.997-35.855 129.852 0s35.855 93.997 0 129.852-93.997 35.855-129.852 0z" fill="#eaf2ff"/><path d="m243.706 87.216c27.408-3.684 56.165 5.002 77.223 26.06 35.855 35.855 35.855 93.997 0 129.852-21.058 21.058-49.814 29.745-77.223 26.06 19.261-2.576 37.862-11.263 52.66-26.06 35.825-35.855 35.825-93.997 0-129.852-14.798-14.797-33.4-23.484-52.66-26.06z" fill="#c9e0fd"/><path d="m356.035 53.637c69.345 71.351 69.345 188.174-.03 259.585l-75.275 77.462-37.802 38.881 13.06 13.45 48.466-49.844 77.702-79.948c69.374-71.411 69.404-188.234.03-259.585l-.09-.12c-37.983-39.091-89.205-56.764-139.139-53.02 41.247 3.085 81.626 20.758 112.988 53.019z" fill="#bd161d"/></g></svg>