<svg clip-rule="evenodd" fill-rule="evenodd" height="512" image-rendering="optimizeQuality" shape-rendering="geometricPrecision" text-rendering="geometricPrecision" viewBox="0 0 512 512" width="512" xmlns="http://www.w3.org/2000/svg" xmlns:xodm="http://www.corel.com/coreldraw/odm/2003"><g id="Layer_x0020_1"><g id="_1300654854336"><path d="m389 215.07h-25.94c-3.58 0-6.48-2.91-6.48-6.49v-94.56c0-41.42-33.7-75.12-75.11-75.12h-50.94c-41.42 0-75.11 33.7-75.11 75.12v94.56c0 3.58-2.9 6.49-6.49 6.49h-25.93c-3.58 0-6.48-2.91-6.48-6.49v-94.56c0-62.87 51.14-114.02 114.01-114.02h50.93c62.87 0 114.02 51.15 114.02 114.02v94.56c0 3.58-2.9 6.49-6.48 6.49z" fill="#ccc"/><path d="m74.13 453.05v-229.09c0-12.05 9.8-21.86 21.86-21.86h320.01c12.06 0 21.87 9.81 21.87 21.86v229.14 18.52 18.52c0 12.05-9.81 21.86-21.86 21.86h-320.02c-12.06 0-21.87-9.81-21.87-21.86v-37.04z" fill="#ffb844"/><path d="m427.75 459.75h-343.5c-25.58 0-46.39-20.81-46.39-46.39v-27.75c0-25.58 20.81-46.39 46.39-46.39h343.5c25.58 0 46.39 20.81 46.39 46.39v27.75c0 25.58-20.81 46.39-46.39 46.39z" fill="#273b7a"/><g fill="#ccc"><path d="m155.86 437.83c-3.58 0-6.48-2.9-6.48-6.48v-63.73c0-8.53 12.96-8.53 12.96 0v63.73c0 3.58-2.9 6.48-6.48 6.48z"/><path d="m187.72 405.97h-63.72c-8.54 0-8.54-12.97 0-12.97h63.72c8.54 0 8.54 12.97 0 12.97z"/><path d="m178.39 428.5c-1.66 0-3.32-.63-4.59-1.9l-45.05-45.06c-6.04-6.04 3.13-15.2 9.17-9.17l45.05 45.06c4.1 4.09 1.15 11.07-4.58 11.07z"/><path d="m133.33 428.5c-5.73 0-8.68-6.98-4.58-11.07l45.05-45.06c6.04-6.03 15.21 3.13 9.17 9.17l-45.06 45.06c-1.26 1.27-2.92 1.9-4.58 1.9z"/><path d="m256 437.83c-3.58 0-6.48-2.9-6.48-6.48v-63.73c0-8.53 12.96-8.53 12.96 0v63.73c0 3.58-2.9 6.48-6.48 6.48z"/><path d="m287.86 405.97h-63.72c-8.54 0-8.54-12.97 0-12.97h63.72c8.54 0 8.54 12.97 0 12.97z"/><path d="m278.53 428.5c-1.66 0-3.32-.63-4.59-1.9l-45.05-45.06c-6.04-6.04 3.13-15.2 9.16-9.17l45.06 45.06c4.09 4.09 1.15 11.07-4.58 11.07z"/><path d="m233.47 428.5c-5.73 0-8.68-6.98-4.59-11.07l45.06-45.06c6.04-6.03 15.21 3.13 9.17 9.17l-45.06 45.06c-1.26 1.27-2.92 1.9-4.58 1.9z"/><path d="m356.14 437.83c-3.58 0-6.49-2.9-6.49-6.48v-63.73c0-8.53 12.97-8.53 12.97 0v63.73c0 3.58-2.9 6.48-6.48 6.48z"/><path d="m388 405.97h-63.73c-8.53 0-8.53-12.97 0-12.97h63.73c8.54 0 8.54 12.97 0 12.97z"/><path d="m378.67 428.5c-1.66 0-3.32-.63-4.59-1.9l-45.06-45.06c-6.03-6.04 3.14-15.2 9.17-9.17l45.06 45.06c4.09 4.09 1.15 11.07-4.58 11.07z"/><path d="m333.61 428.5c-5.73 0-8.68-6.98-4.59-11.07l45.06-45.06c6.04-6.03 15.21 3.13 9.17 9.17l-45.06 45.06c-1.26 1.27-2.92 1.9-4.58 1.9z"/></g></g></g></svg>