<svg enable-background="new 0 0 512 512" height="512" viewBox="0 0 512 512" width="512" xmlns="http://www.w3.org/2000/svg" fill="#052656"><g><path d="m505.667 492.917c0-42.025-33.162-76.448-74.692-78.483l-50.955 97.566h125.647z"/><path d="m81.025 414.434c-41.53 2.035-74.692 36.457-74.692 78.483v19.083h125.647z"/><path d="m282.257 467.311c-14.528-14.358-37.987-14.357-52.515 0l-40.766 44.689h134.047z"/><path d="m221.643 435.937c21.101-12.508 47.613-12.508 68.715 0l58.026-74.083v-18.145c-9.721 7.184-20.224 13.211-31.422 17.994-19.367 8.273-39.925 12.468-61.104 12.468s-41.737-4.195-61.104-12.468c-11.088-4.737-21.495-10.693-31.136-17.784v17.934z"/><path d="m148.248 390.883-33.328 23.648 44.55 85.3 39.874-43.711z"/><path d="m352.53 499.832 44.55-85.301-33.328-23.648-51.097 65.237z"/><path d="m296.068 0h-80.422c-43.943 0-80.23 33.099-85.76 75.958 15.288-13.457 40.516-21.632 62.435-21.632 35.008 27.484 92.063 27.484 127.071 0 21.92 0 47.147 8.176 62.435 21.632-5.53-42.859-41.816-75.958-85.759-75.958z"/><path d="m125.656 234.352h4.771c8.728 62.078 61.554 109.819 125.429 109.819 63.931 0 116.794-47.826 125.452-109.984h4.748c9.893 0 19.003-3.391 26.25-9.06 10-7.821 16.447-19.987 16.447-33.638 0-13.535-6.338-25.61-16.194-33.438-7.288-5.788-16.495-9.259-26.503-9.259h-4.728v-7.715c0-29.698-22.933-54.142-52.018-56.557-44.004 31.517-102.904 31.517-146.908 0-29.085 2.414-52.018 26.858-52.018 56.557v7.88h-4.728c-10.008 0-19.216 3.47-26.503 9.259-9.856 7.828-16.194 19.903-16.194 33.438 0 13.655 6.451 25.825 16.457 33.646 7.247 5.665 16.353 9.052 26.24 9.052zm86.861 23.256 23.308-18.888c4.963 6.124 12.316 9.636 20.175 9.636s15.213-3.512 20.176-9.636l23.308 18.888c-10.686 13.186-26.535 20.749-43.483 20.749s-32.799-7.563-43.484-20.749zm14.873-73.966c9.892 0 19.638 2.059 28.61 6.005 8.972-3.946 18.718-6.005 28.61-6.005 25.502 0 49.188 13.792 61.812 35.995l-26.078 14.83c-7.305-12.845-20.997-20.825-35.734-20.825-7.393 0-14.634 1.983-20.94 5.736l-7.67 4.562-7.67-4.563c-6.306-3.752-13.547-5.735-20.94-5.735-14.737 0-28.43 7.979-35.733 20.824l-26.079-14.829c12.624-22.203 36.309-35.995 61.812-35.995z"/></g></svg>