<svg width="52" height="31" viewBox="0 0 52 31" fill="none" xmlns="http://www.w3.org/2000/svg">
<path fill-rule="evenodd" clip-rule="evenodd" d="M49.5334 6.90311C51.0773 9.27833 51.9727 12.1086 51.9727 15.1355C51.9727 23.4436 45.2275 30.271 36.9194 30.271C33.3001 30.271 30.0098 29.0371 27.3775 26.8984C29.3517 25.0065 30.8323 22.621 31.6549 19.9065H30.421C29.6807 22.2919 28.2823 24.4306 26.4727 26.1581C24.663 24.4306 23.3468 22.2919 22.5243 19.9065H21.2904C22.113 22.621 23.5936 25.0065 25.5678 26.8984C23.0178 28.9548 19.7275 30.271 16.1081 30.271C7.71782 30.271 0.972656 23.4436 0.972656 15.1355C0.972656 6.82742 7.71782 0 16.0259 0L16.0674 5.42452e-05L16.1081 0C16.7588 0 17.401 0.0445303 18.0329 0.130007C19.525 0.326184 20.9347 0.740507 22.2488 1.34654C23.4565 1.88796 24.5966 2.57452 25.6501 3.37258C23.6759 5.26452 22.1952 7.65 21.3727 10.3645H22.442C23.2646 7.97903 24.5807 5.84032 26.3904 4.1129C26.4871 4.20517 26.5823 4.29862 26.6762 4.39321C28.3609 6.06471 29.5997 8.10226 30.3924 10.3645H31.5727C30.7501 7.65 29.2694 5.26452 27.2952 3.37258C29.9275 1.23387 33.2178 0 36.8372 0C42.1999 0 46.8867 2.75577 49.5334 6.90311ZM35.6856 13.4902C35.2743 13.2435 35.0275 13.2435 34.534 13.2435C34.0404 13.2435 32.8888 13.737 32.7243 15.0531C32.4775 16.6983 33.5469 17.4386 35.1098 16.9451L35.5211 18.3435C35.0275 18.5902 34.534 18.6725 33.7114 18.6725C32.1485 18.6725 30.4211 17.2741 31.1614 14.3951C31.7372 12.3386 33.5469 11.5161 34.6162 11.5983C35.8501 11.6806 36.3436 12.0919 36.6727 12.5031L35.6856 13.4902ZM22.1952 11.6806H20.7146L19.563 16.9451C19.3162 18.4257 20.4678 18.6725 20.7969 18.6725C21.2081 18.6725 21.6194 18.6725 21.9485 18.4257L22.113 17.1919C21.2904 17.3564 21.2081 16.9451 21.2904 16.5338L21.7017 14.3128H22.442L22.6888 13.1612H21.8662L22.1952 11.6806ZM41.9372 13.079L40.8678 18.6725H42.4307L42.9243 16.1225C43.3959 14.5503 44.0178 14.5557 44.431 14.5593H44.4311C44.4502 14.5594 44.4689 14.5596 44.4872 14.5596L44.8985 13.079C44.0759 13.079 43.6646 13.408 43.4178 13.6548L43.2533 13.079H41.9372ZM19.234 14.3951L19.563 13.2435C18.8227 12.9967 18.2469 12.9967 18.0823 12.9967C17.8356 12.9967 16.0259 12.9967 15.7791 14.3128C15.5323 15.3822 15.9436 15.7935 16.2727 15.958C16.6406 16.1157 16.9078 16.2734 17.1387 16.4096C17.269 16.4866 17.3878 16.5567 17.5065 16.6161C17.9178 16.7806 17.8356 17.4386 17.342 17.4386C17.3049 17.4386 17.2511 17.4405 17.1839 17.4428H17.1839C16.8041 17.4559 15.9969 17.4838 15.3678 17.2741L15.121 18.4257C15.8614 18.5902 16.3549 18.5902 16.9307 18.5902L16.9873 18.5905C17.4858 18.5941 19.1617 18.606 19.3985 17.0273C19.5516 16.2617 19.2059 15.9237 18.9583 15.6815C18.9399 15.6635 18.922 15.646 18.9049 15.629C18.7843 15.5686 18.6526 15.4862 18.518 15.402C18.2854 15.2564 18.044 15.1053 17.8356 15.0531C17.5065 14.8886 17.2598 14.3951 17.8356 14.2306C17.9658 14.274 18.2334 14.2945 18.5177 14.3162C18.772 14.3357 19.0397 14.3562 19.234 14.3951ZM10.6791 11.9273L9.36298 18.6725H7.80008L8.70492 13.9015L6.56621 18.6725H5.16782L4.75653 13.8193L3.76944 18.6725H2.28879L3.60492 11.9273H5.9904L6.31944 16.0402L8.12911 11.9273H10.6791ZM27.2952 16.2048L27.2966 16.1971C27.462 15.2874 27.8636 13.079 25.2388 13.079C22.771 13.079 22.442 15.5467 22.442 15.8757C22.3597 16.2048 22.3597 18.6725 24.992 18.6725C25.6501 18.6725 26.5549 18.5902 26.9662 18.4257L27.213 17.2741C26.9662 17.3564 26.1436 17.4386 25.4855 17.4386C24.9097 17.4386 23.9226 17.4386 24.0872 16.2048H27.2952ZM24.0872 15.1354H25.9791C26.0614 14.5596 25.8969 14.1483 25.3211 14.1483C24.663 14.1483 24.2517 14.4773 24.0872 15.1354ZM10.8436 14.4773L11.0904 13.2435C12.0775 13.079 12.571 13.079 12.9 13.1612C15.45 13.1612 15.2033 14.9709 15.0388 15.7112L14.463 18.7548H13.0646L12.9 18.4257C12.6533 18.5902 12.4065 18.7548 11.6662 18.7548C10.9259 18.7548 9.93876 18.179 10.1033 17.0273C10.4765 14.8626 12.7464 15.001 13.4707 15.0451C13.5445 15.0496 13.6023 15.0531 13.6404 15.0531C13.8668 14.2983 13.3313 14.3054 12.8601 14.3117C12.8179 14.3123 12.7762 14.3128 12.7355 14.3128C12.4775 14.3128 12.0846 14.3578 11.7096 14.4007L11.7096 14.4007C11.3673 14.4399 11.0399 14.4773 10.8436 14.4773ZM13.1988 16.1891C13.2757 16.1975 13.3419 16.2048 13.3936 16.2048L13.3114 16.7806C13.1469 17.2741 12.4888 17.6031 11.9952 17.4386C11.4194 17.2741 11.584 16.6983 12.0775 16.3693C12.4676 16.1092 12.909 16.1575 13.1988 16.1891ZM48.6001 13.737C48.5124 13.6712 48.4364 13.5938 48.3596 13.5156C48.1483 13.3002 47.9311 13.0789 47.4484 13.0789C47.4028 13.0789 47.3556 13.0784 47.3071 13.0779C46.4815 13.069 45.2686 13.056 44.5694 15.4644C44.0759 17.1919 45.063 18.6725 46.1323 18.6725C46.6259 18.6725 47.1194 18.4257 47.4484 18.2612L47.613 18.6725H49.2581L50.5742 11.5983H49.0114L48.6001 13.737ZM48.1065 16.0402C48.271 15.5467 48.1888 14.8886 48.0243 14.6419C47.5307 13.9838 46.4614 14.4773 46.1323 15.7112C45.8855 16.5338 46.3791 17.1096 46.8726 17.1096C47.4484 17.1096 47.7775 16.6983 48.1065 16.0402ZM36.5081 14.4773L36.7549 13.2435C37.742 13.079 38.3178 13.079 38.5646 13.1612C41.1146 13.1612 40.8678 14.9709 40.7033 15.7112L40.1275 18.7548H38.7291L38.5646 18.4257C38.3178 18.5902 38.071 18.7548 37.3307 18.7548C36.5904 18.7548 35.6033 18.179 35.7678 17.0273C36.141 14.8626 38.4109 15.001 39.1352 15.0451C39.209 15.0496 39.2668 15.0531 39.3049 15.0531C39.4557 14.299 38.9842 14.3054 38.5244 14.3117C38.4827 14.3123 38.4411 14.3128 38.4001 14.3128C38.142 14.3128 37.7491 14.3578 37.3741 14.4007C37.0318 14.4399 36.7044 14.4773 36.5081 14.4773ZM38.9455 16.1891L38.9456 16.1891C39.0225 16.1975 39.0887 16.2048 39.1404 16.2048L39.0581 16.7806C38.9759 17.2741 38.2356 17.6031 37.742 17.4386C37.1662 17.2741 37.3307 16.6983 37.8243 16.3693C38.2143 16.1092 38.6558 16.1575 38.9455 16.1891ZM28.3646 13.1612L27.2952 18.6725V18.7548H28.8582L29.3517 16.2048C29.8239 14.6308 30.5219 14.638 30.8696 14.6415L30.9146 14.6419L31.3259 13.1612C30.5033 13.1612 30.092 13.4902 29.8452 13.737L29.6807 13.1612H28.3646Z" fill="#ba0202"/>
</svg>
