<?xml version="1.0" encoding="iso-8859-1"?>
<!-- Generator: Adobe Illustrator 19.0.0, SVG Export Plug-In . SVG Version: 6.00 Build 0)  -->
<svg version="1.1" id="Capa_1" xmlns="http://www.w3.org/2000/svg" xmlns:xlink="http://www.w3.org/1999/xlink" x="0px" y="0px"
	 viewBox="0 0 512 512" style="enable-background:new 0 0 512 512;" xml:space="preserve">
<path style="fill:#17ACE8;" d="M450,61v15l-30,30H30L0,76V61c0-24.901,20.099-45,45-45h360C429.901,16,450,36.099,450,61z"/>
<path style="fill:#1689FC;" d="M450,61v15l-30,30H225V16h180C429.901,16,450,36.099,450,61z"/>
<polygon style="fill:#08469C;" points="450,76 450,136 420,166 30,166 0,136 0,76 "/>
<polygon style="fill:#063E8B;" points="450,76 450,136 420,166 225,166 225,76 "/>
<path style="fill:#17ACE8;" d="M450,136v195c0,24.901-20.099,45-45,45H45c-24.901,0-45-20.099-45-45V136H450z"/>
<path style="fill:#1689FC;" d="M450,136v195c0,24.901-20.099,45-45,45H225V136H450z"/>
<g>
	<path style="fill:#B7E0F6;" d="M165,256H75c-8.291,0-15-6.709-15-15s6.709-15,15-15h90c8.291,0,15,6.709,15,15S173.291,256,165,256
		z"/>
	<path style="fill:#B7E0F6;" d="M165,316H75c-8.291,0-15-6.709-15-15s6.709-15,15-15h90c8.291,0,15,6.709,15,15S173.291,316,165,316
		z"/>
</g>
<path style="fill:#32D736;" d="M362,196c-82.8,0-150,67.2-150,150s67.2,150,150,150s150-67.2,150-150S444.8,196,362,196z"/>
<path style="fill:#10BB67;" d="M512,346c0,82.8-67.2,150-150,150V196C444.8,196,512,263.2,512,346z"/>
<path style="fill:#CAE8F9;" d="M432.499,326.499L362,397l-4.501,4.499C354.8,404.5,350.9,406,347,406s-7.8-1.5-10.499-4.501l-45-45
	c-6-5.7-6-15.3,0-21c5.7-5.999,15.298-5.999,20.999,0l34.501,34.2l15-15l49.501-49.2c5.7-5.999,15.298-5.999,20.999,0
	C438.5,311.199,438.5,320.799,432.499,326.499z"/>
<path style="fill:#B7E0F6;" d="M432.499,326.499L362,397v-42.301l49.501-49.2c5.7-5.999,15.298-5.999,20.999,0
	C438.5,311.199,438.5,320.799,432.499,326.499z"/>
<g>
</g>
<g>
</g>
<g>
</g>
<g>
</g>
<g>
</g>
<g>
</g>
<g>
</g>
<g>
</g>
<g>
</g>
<g>
</g>
<g>
</g>
<g>
</g>
<g>
</g>
<g>
</g>
<g>
</g>
</svg>
