<svg id="Artboard_30" height="512" viewBox="0 0 64 64" width="512"
    xmlns="http://www.w3.org/2000/svg" data-name="Artboard 30">
    <g fill="#223758">
        <path d="m42 5.333-18.155 5.279a1.018 1.018 0 0 0 -.845.988v4.8a.994.994 0 0 0 .783.976l18.217 5.292z"/>
        <path d="m16 57.974v3.026h6v-3.026a4.9 4.9 0 0 1 -6 0z"/>
        <path d="m16 54a3 3 0 0 0 6 0v-12h-6zm2-1h2v2h-2z"/>
        <path d="m8 44h6v15h-6z"/>
        <path d="m46 36.914v-32.914a1 1 0 0 0 -2 0v31.518c.1.059.2.113.3.181z"/>
        <path d="m54 48h-7.135l-.876 1.534a2.916 2.916 0 0 1 -1.531 1.284.976.976 0 0 0 .542.182h9a1 1 0 0 0 1-1v-1a1 1 0 0 0 -1-1z"/>
        <path d="m47.692 42.519a.948.948 0 0 1 .055-.085 1.479 1.479 0 0 0 -.343-2.06l-4.267-3.047a1.745 1.745 0 0 0 -1.019-.327h-3.118a6.208 6.208 0 0 0 -4.421 1.832l-3.542 3.541a8.909 8.909 0 0 1 -6.337 2.627h-.7v13h.084a11.527 11.527 0 0 1 5.931 1.643 9.525 9.525 0 0 0 4.901 1.357h7.268a2.966 2.966 0 0 1 -.184-1v-1a2.981 2.981 0 0 1 .78-2 2.981 2.981 0 0 1 -.78-2v-1a2.981 2.981 0 0 1 .78-2 2.993 2.993 0 0 1 -.7-1.327 3.017 3.017 0 0 1 -.471-.3l-.1-.082a5.373 5.373 0 0 1 -1.758-2.547 8.9 8.9 0 0 1 -6.863 3.256h-1.888v-2h1.888a6.9 6.9 0 0 0 5.651-2.942l1.312-1.875a5.427 5.427 0 0 1 .544-1.078l1.773-2.66 1.664 1.11-1.773 2.659a3.361 3.361 0 0 0 .7 4.513l.1.082a.931.931 0 0 0 .756.187.918.918 0 0 0 .635-.454z"/>
        <rect height="3" rx="1" width="10" x="44" y="53"/>
        <path d="m55 43h-5.289a3.505 3.505 0 0 1 -.3.551l-1.404 2.449h6.993a1 1 0 0 0 1-1v-1a1 1 0 0 0 -1-1z"/>
        <rect height="3" rx="1" width="8" x="44" y="58"/>
    </g>
</svg>