<svg width="114" height="158" viewBox="0 0 114 158" fill="none" xmlns="http://www.w3.org/2000/svg">
<path d="M7.7 145.2C8.61 144.63 9.52 144.09 10.47 143.57C10.97 143.29 11.37 143.09 11.88 142.82C12.37 142.57 12.85 142.34 13.34 142.11C15.29 141.22 17.24 140.47 19.19 139.76C23.09 138.34 26.97 137.08 30.81 135.74C33.04 134.96 35.26 134.16 37.47 133.31C38.49 128.92 39.47 123.86 41.61 121.37C44.52 118 49.71 115.08 54.22 113.64C53.45 117.86 51.13 124.37 48.23 127.74C47.7 128.36 47.05 128.98 46.34 129.6C48.62 128.55 50.87 127.45 53.07 126.26C55.11 125.16 57.1 123.98 59.04 122.74C58.65 117.12 57.4 109.94 59.06 105.92C61.02 101.17 65.65 96.07 70.08 92.86C70.77 97.77 70.6 105.75 68.63 110.5C67.34 113.62 64.51 117.27 62.16 120.65C65.81 118.1 69.27 115.28 72.44 112.15C74.81 109.83 77.01 107.34 79.06 104.72C77.15 99.37 73.86 92.67 74.36 88.27C74.94 83.16 77.99 76.99 81.37 72.69C83.38 77.22 85.41 84.95 84.83 90.05C84.45 93.39 82.75 97.65 81.41 101.53C83.35 98.76 85.12 95.87 86.68 92.87C87.14 91.98 87.6 91.08 88.03 90.18C88.47 89.26 88.89 88.35 89.27 87.44C90.05 85.6 90.74 83.72 91.33 81.81C91.65 80.77 91.94 79.72 92.21 78.67C88.48 74.4 83.02 69.39 81.89 65.14C80.57 60.17 81.16 53.32 82.72 48.08C86.25 51.56 90.95 58.02 92.27 62.98C93.06 65.95 93.11 70.04 93.24 73.86C93.47 72.59 93.68 71.32 93.84 70.05C94.62 63.95 94.67 57.76 94.2 51.59C89.87 48.12 82.93 44.2 80.89 40.12C78.68 35.71 77.89 29.15 78.35 23.92C82.34 26.5 88.02 31.65 90.23 36.06C91.89 39.37 92.79 44.59 93.95 48.75C93.85 47.78 93.74 46.81 93.62 45.84C92.69 38.58 91.17 31.37 89.04 24.34C85.12 22.46 81.85 19.19 80.1 14.84C78.26 10.26 78.57 5.19 79.76 0C83.77 2.6 87.9 6.38 89.75 10.95C91.5 15.31 91.43 19.94 89.89 24.01C91.08 27.11 92.07 30.28 92.93 33.49C93.56 35.76 94.08 38.06 94.54 40.37C94.25 36.28 93.6 31.58 94.07 28.2C94.75 23.32 98.49 16.62 101.45 12.9C103.55 17.71 104.91 24.17 104.22 29.06C103.59 33.59 98.23 39.54 95.25 44.23C95.33 44.68 95.41 45.13 95.48 45.58C96.43 51.83 96.86 58.18 96.6 64.53C97.52 59.9 97.8 53.62 99.29 49.63C101.1 44.8 106.42 38.83 110.28 35.7C111.33 41.08 111.25 47.98 109.44 52.81C107.72 57.42 100.55 62.43 96.49 66.61C96.41 67.85 96.31 69.08 96.18 70.31C95.78 73.97 95.11 77.61 94.16 81.18C95.58 78.22 97.05 75.26 98.67 73.22C101.99 69.06 109.13 64.91 113.93 63.07C113.23 68.69 110.94 75.43 107.62 79.59C104.71 83.24 97.15 85.75 91.82 88.3C91.8 88.35 91.78 88.4 91.76 88.46C91.37 89.43 90.95 90.39 90.52 91.33C90.09 92.29 89.64 93.22 89.18 94.15C87.73 97.05 86.1 99.87 84.31 102.59C86.78 99.88 89.32 97.08 91.72 95.42C96.23 92.3 104.52 90.32 109.8 89.93C107.45 95.27 103.18 101.25 98.67 104.37C94.63 107.16 86.19 107.36 80.14 108.34C78.45 110.46 76.66 112.51 74.76 114.45C73 116.25 71.14 117.95 69.22 119.57C72.54 117.74 75.99 115.81 78.9 114.99C84.18 113.5 92.66 114.3 97.78 115.64C93.83 119.93 87.85 124.21 82.57 125.7C77.95 127.01 70.15 124.6 64.15 123.53C61.27 125.62 58.27 127.55 55.18 129.31C55.78 129.2 56.37 129.1 56.92 129.06C61.84 128.62 69.22 130.75 73.53 132.8C69.31 135.94 63.31 138.72 58.39 139.16C54.55 139.5 48.98 136.81 44.18 134.85C40.24 136.6 36.24 138.18 32.23 139.65C28.38 141.08 24.5 142.41 20.73 143.84C18.85 144.56 16.99 145.3 15.23 146.13C14.79 146.34 14.36 146.55 13.94 146.78C13.54 146.99 13.04 147.26 12.65 147.49C11.81 147.96 10.97 148.47 10.15 149C6.89 151.12 3.92 153.66 1.5 156.6C1.32 156.82 1.15 157.05 0.969997 157.27L0 151.3C2.33 148.98 4.94 146.95 7.7 145.2Z" fill="url(#paint0_linear_175_2282)"/>
<defs>
<linearGradient id="paint0_linear_175_2282" x1="21.4399" y1="62" x2="146.94" y2="116.5" gradientUnits="userSpaceOnUse">
<stop stop-color="#F9F3A3"/>
<stop offset="0.354277" stop-color="#E1C878"/>
<stop offset="1" stop-color="#B47A2B"/>
</linearGradient>
</defs>
</svg>
