<svg height="512" viewBox="0 0 64 64" width="512" xmlns="http://www.w3.org/2000/svg">
    <g id="Give" fill="#223758">
        <path
            d="m32 14.36426v5.2666a10.83525 10.83525 0 0 0 7 10.13965 10.83525 10.83525 0 0 0 7-10.13965v-5.2666a24.35217 24.35217 0 0 1 -7-3.08155 24.35217 24.35217 0 0 1 -7 3.08155zm10.707 2.92874a.99962.99962 0 0 1 0 1.41406l-4 4a.99963.99963 0 0 1 -1.41406 0l-2-2a.99989.99989 0 0 1 1.41406-1.41406l1.293 1.29294 3.293-3.293a.99962.99962 0 0 1 1.414.00006z" />
        <path
            d="m51 9c-6.4834 0-11.24609-4.66113-11.294-4.708a1.00111 1.00111 0 0 0 -1.41308.001c-.04683.04684-4.78218 4.707-11.29292 4.707a.99974.99974 0 0 0 -1 1v9.63086a16.81783 16.81783 0 0 0 12.75781 16.33935 1.00333 1.00333 0 0 0 .48535 0 16.81929 16.81929 0 0 0 12.75684-16.33935v-9.63086a.99974.99974 0 0 0 -1-1zm-3 10.63086a12.834 12.834 0 0 1 -8.67676 12.14844.99952.99952 0 0 1 -.64648 0 12.834 12.834 0 0 1 -8.67676-12.14844v-6.05908a1.00061 1.00061 0 0 1 .791-.978 22.22138 22.22138 0 0 0 7.64843-3.33594.99885.99885 0 0 1 1.1211 0 22.22138 22.22138 0 0 0 7.64847 3.33591 1.00061 1.00061 0 0 1 .791.978z" />
        <rect height="26" rx="1" width="6" x="6" y="31" />
        <path d="m0 33h4v22h-4z" />
        <path
            d="m61.48 33.84a4.68157 4.68157 0 0 0 -4.88995.23l-15.01005 10.01a7.18421 7.18421 0 0 1 .42 2.41 7.04717 7.04717 0 0 1 -7.02 7.03 7.08513 7.08513 0 0 1 -3.15-.75l-11.2-5.6a1.00176 1.00176 0 1 1 .9-1.79l11.2 5.6a5.02208 5.02208 0 0 0 7.27-4.49 4.70976 4.70976 0 0 0 -.16-1.25 4.98582 4.98582 0 0 0 -2.62-3.25l-15.66-7.83a11.05157 11.05157 0 0 0 -4.92-1.16h-2.64v22h1.78a9.119 9.119 0 0 1 3.81.84l6.03 2.82a14.39079 14.39079 0 0 0 14.25-1.24l22.1-15.48a4.77048 4.77048 0 0 0 2.03-3.9 4.68329 4.68329 0 0 0 -2.52-4.2z" />
    </g>
</svg>