<svg height="512" viewBox="0 0 58 58" width="512" xmlns="http://www.w3.org/2000/svg"><g id="Page-1" fill="none" fill-rule="evenodd"><g id="107---Watched-Files" fill-rule="nonzero"><path id="Shape" d="m50 53h4c2.209139 0 4-1.790861 4-4v-35l-14-14h-20c-2.2064037.0065896-3.9934104 1.79359627-4 4v20z" fill="#b0d3f0"/><path id="Shape" d="m44 0v10c0 2.209139 1.790861 4 4 4h10z" fill="#90bae1"/><path id="Shape" d="m50 28v26c0 2.209139-1.790861 4-4 4h-42c-2.209139 0-4-1.790861-4-4v-36c0-2.209139 1.790861-4 4-4h14c2.209139 0 4 1.790861 4 4v2c0 2.209139 1.790861 4 4 4h20c2.209139 0 4 1.790861 4 4z" fill="#f0c419"/><g fill="#2980ba"><path id="Shape" d="m28 13h-2c-.5522847 0-1-.4477153-1-1s.4477153-1 1-1h2c.5522847 0 1 .4477153 1 1s-.4477153 1-1 1z"/><path id="Shape" d="m40 13h-7c-.5522847 0-1-.4477153-1-1s.4477153-1 1-1h7c.5522847 0 1 .4477153 1 1s-.4477153 1-1 1z"/><path id="Shape" d="m28 17h-2c-.5522847 0-1-.4477153-1-1s.4477153-1 1-1h2c.5522847 0 1 .4477153 1 1s-.4477153 1-1 1z"/><path id="Shape" d="m40 17h-7c-.5522847 0-1-.4477153-1-1s.4477153-1 1-1h7c.5522847 0 1 .4477153 1 1s-.4477153 1-1 1z"/><path id="Shape" d="m28 21h-2c-.5522847 0-1-.4477153-1-1s.4477153-1 1-1h2c.5522847 0 1 .4477153 1 1s-.4477153 1-1 1z"/><path id="Shape" d="m40 21h-7c-.5522847 0-1-.4477153-1-1s.4477153-1 1-1h7c.5522847 0 1 .4477153 1 1s-.4477153 1-1 1z"/></g><path id="Shape" d="m4 21c-.55228475 0-1-.4477153-1-1v-2c0-.5522847.44771525-1 1-1s1 .4477153 1 1v2c0 .5522847-.44771525 1-1 1z" fill="#f3d55b"/><path id="Shape" d="m4 40c-.55228475 0-1-.4477153-1-1v-14c0-.5522847.44771525-1 1-1s1 .4477153 1 1v14c0 .5522847-.44771525 1-1 1z" fill="#f3d55b"/><path id="Shape" d="m40.446 42.557c.7390342-.9064558.7390342-2.2075442 0-3.114-2.446-3.034-8.439-9.443-15.446-9.443s-13 6.409-15.446 9.443c-.73903423.9064558-.73903423 2.2075442 0 3.114 2.446 3.034 8.439 9.443 15.446 9.443s13-6.409 15.446-9.443z" fill="#ecf0f1"/><circle id="Oval" cx="25" cy="41" fill="#67b9cc" r="8"/><circle id="Oval" cx="25" cy="41" fill="#2fa8cc" r="5"/><circle id="Oval" cx="25" cy="41" fill="#35495e" r="3"/><path id="Shape" d="m11.49 43.41c.35.78.79 1.69 1.3 2.68-1.1529043-1.1076097-2.2350384-2.2866015-3.24-3.53-.72858553-.912395-.72858553-2.207605 0-3.12 1.0049616-1.2433985 2.0870957-2.4223903 3.24-3.53-.51.99-.95 1.9-1.3 2.68-.6500883 1.5409071-.6500883 3.2790929 0 4.82z" fill="#fb7b76"/><path id="Shape" d="m40.45 42.56c-1.0049616 1.2433985-2.0870957 2.4223903-3.24 3.53.51-.99.95-1.9 1.3-2.68.6500883-1.5409071.6500883-3.2790929 0-4.82-.35-.78-.79-1.69-1.3-2.68 1.1529043 1.1076097 2.2350384 2.2866015 3.24 3.53.7285855.912395.7285855 2.207605 0 3.12z" fill="#fb7b76"/><circle id="Oval" cx="19" cy="36" fill="#ecf0f1" r="3"/></g></g></svg>