<svg id="svg8" height="512" viewBox="0 0 16.933333 16.933333" width="512" xmlns="http://www.w3.org/2000/svg" xmlns:svg="http://www.w3.org/2000/svg"><g id="layer2"><path id="path2025" d="m8.4736018-.00025806c-1.5221789 0-2.775041 1.16645006-2.8943969 2.64635006h-.922424c-.838429 0-1.454231.6507901-1.581815 1.53324l-1.611272 11.144539c-.126743.87664.690124 1.60972 1.583883 1.60972h10.8396481c.900627 0 1.708892-.73324 1.582333-1.60972l-1.609205-11.144539c-.122944-.85145-.719335-1.53324-1.582332-1.53324h-.910538c-.119359-1.47989-1.3717072-2.64635006-2.8938812-2.64635006zm0 .52916999c1.238745 0 2.2499012.92724007 2.3667812 2.11718007h-4.7320112c.1166741-1.18994 1.126482-2.11719007 2.36523-2.11718007zm-3.8168209 2.64686007h7.6212401c.632972 0 .981539.54245 1.05885 1.0779699l1.609204 11.1466091c.07998.55403-.49176 1.00356-1.05885 1.00356h-10.8396481c-.565399 0-1.138736-.44663-1.0583329-1.00356l1.6092039-11.1466091c.08483-.5876298.461221-1.0779699 1.058333-1.0779699zm6.1954881 2.1151198c.000001 1.2986102-1.0609293 2.3497302-2.3786672 2.3497302-1.3177409 0-2.3771169-1.05111-2.3771159-2.3497302 0-.3519498-.5291661-.3538497-.5291661 0-.0000011 1.5877701 1.305688 2.8789 2.906282 2.8788902 1.6005902 0 2.9062852-1.2911301 2.9062832-2.8788902 0-.3519498-.527616-.3519498-.527616 0z" font-variant-ligatures="normal" font-variant-position="normal" font-variant-caps="normal" font-variant-numeric="normal" font-variant-alternates="normal" font-feature-settings="normal" text-indent="0" text-align="start" text-decoration-line="none" text-decoration-style="solid" text-decoration-color="rgb(0,0,0)" text-transform="none" text-orientation="mixed" white-space="normal" shape-padding="0" isolation="auto" mix-blend-mode="normal" solid-color="rgb(0,0,0)" solid-opacity="1" vector-effect="none"/></g></svg>