<svg id="Layer_1" height="512" viewBox="0 0 64 64" width="512"
    xmlns="http://www.w3.org/2000/svg" data-name="Layer 1">
    <path fill="#223758" d="m53.819 26.6a2 2 0 0 1 2 2v8.583a2 2 0 0 1 -2 2h-1.444v-12.583zm-1.631-5.171c-1.47-1.5-3.976-4.515-4.089-7.726a5.228 5.228 0 0 1 4.992-5.365 5.144 5.144 0 0 1 5.291 5.141c0 3.3-2.6 6.43-4.1 7.961a1.463 1.463 0 0 1 -2.094-.012zm1.05-5.633a2.285 2.285 0 1 0 -2.285-2.285 2.285 2.285 0 0 0 2.286 2.289zm-43.057 23.387h1.473v-12.583h-1.473a2 2 0 0 0 -2 2v8.583a2 2 0 0 0 2 2zm49.919 13.978a14.184 14.184 0 0 1 -.528 3.833 1 1 0 0 1 -.963.73h-2.79v.427a2 2 0 0 1 -2 2h-7.764v-4.851a1 1 0 0 0 -2 0v4.855h-11.03v-16.165l8.184 2.51-.209-7.991-.7-.247a11.554 11.554 0 0 1 -16.641-.089l-.626.229-.213 8.108 8.205-2.52v16.161h-11.079v-5.7a1 1 0 0 0 -2 0v5.7h-7.714a2 2 0 0 1 -2-2v-.427h-2.838a1 1 0 0 1 -.963-.73 14.183 14.183 0 0 1 0-7.666 1 1 0 0 1 .963-.73h2.838v-4.915l2.888 1.072a9.645 9.645 0 0 1 4.422-5.573h-1.609v-12.582h8.453c-.079-.287-.168-.571-.221-.866-.128-.039-.26-.081-.406-.131a5.053 5.053 0 0 1 -2.838-2.679 6.229 6.229 0 0 1 -.285-4.756 2.362 2.362 0 0 1 1.51-1.585 2.429 2.429 0 0 1 1.1-.04c-1.08-3.513-.906-5.975.553-7.315a6.369 6.369 0 0 1 1.819-3.8c1.813-1.831 4.707-2.7 8.623-2.565 4.474.147 6.973 1.285 8.916 4.059a10.62 10.62 0 0 1 1.675 4.631 16.6 16.6 0 0 1 -.233 5.009 2.491 2.491 0 0 1 1.291.019 2.357 2.357 0 0 1 1.52 1.588 6.226 6.226 0 0 1 -.285 4.755 5.051 5.051 0 0 1 -2.839 2.68c-.145.05-.278.093-.4.131-.053.295-.143.578-.221.865h8.435v12.583h-1.73a9.579 9.579 0 0 1 4.53 5.583l2.918-1.084v4.918h2.787a1 1 0 0 1 .963.73 14.185 14.185 0 0 1 .532 3.831zm-12.712-12.274-.163 5.987 3.806-1.414a7.6 7.6 0 0 0 -3.643-4.573zm-16.642-8.13a4.674 4.674 0 0 0 2.56 0 12.348 12.348 0 0 0 4.551-3.311 7.945 7.945 0 0 0 2.193-5.51v-5.236l-1.05-2.063a1 1 0 0 1 -.105-.53c.311-4-.886-4.549-2.4-5.241-.97-.443-3.145.283-4.045.7a1 1 0 0 1 -.85 0c-.9-.421-3.075-1.147-4.045-.7-1.516.692-2.713 1.239-2.4 5.241a1 1 0 0 1 -.105.531l-1.05 2.062v5.238a7.946 7.946 0 0 0 2.193 5.51 12.349 12.349 0 0 0 4.553 3.31zm11.3-9.248a3.349 3.349 0 0 0 1.276-1.453 4.268 4.268 0 0 0 .2-3.217c-.068-.191-.156-.329-.224-.35-.133-.038-.559.046-1.256.5zm-20.046-4.52c-.7-.457-1.131-.536-1.257-.5-.067.021-.155.158-.224.35a4.269 4.269 0 0 0 .2 3.217 3.351 3.351 0 0 0 1.281 1.454zm-9.006 26.462 3.81 1.415-.164-6.032a7.648 7.648 0 0 0 -3.646 4.617zm-6.818 10.273h2.093a2.562 2.562 0 1 0 0-5.125h-2.093a12.175 12.175 0 0 0 -.063 4.732c.023.13.035.263.063.393zm13.77-4.516a1 1 0 0 0 -2 0v.108a1 1 0 0 0 2 0zm.858-4.079.25-9.5-1.96.425a.648.648 0 0 0 -.511.65l.243 8.914.176.066zm17.614-9.812a4.211 4.211 0 0 1 -1.518-3.231v-1.086a10.526 10.526 0 0 1 -2.96 1.652 6.667 6.667 0 0 1 -3.829 0 10.522 10.522 0 0 1 -2.961-1.652v.833a4.394 4.394 0 0 1 -1.617 3.4 9.605 9.605 0 0 0 12.884.086zm6.632 10.365.155-.057.243-8.922a.65.65 0 0 0 -.511-.651l-1.96-.424.25 9.495zm1.005 4.374a1 1 0 0 0 -2 0v.108a1 1 0 0 0 2 0zm11.769-1.456h-2.093a2.562 2.562 0 1 0 0 5.125h2.093c.023-.1.031-.211.051-.317a12.177 12.177 0 0 0 -.051-4.808z"/>
</svg>