<svg height="512" viewBox="0 0 64 64" width="512"
    xmlns="http://www.w3.org/2000/svg">
    <g fill="#223758" id="Layer_30" data-name="Layer 30">
        <path d="m54 42h-1a1 1 0 0 1 -1-1v-2h-2v2a1 1 0 0 1 -1 1h-1a3.01 3.01 0 0 0 -2.82 2h11.64a3.01 3.01 0 0 0 -2.82-2z"/>
        <path d="m48 35h6v2h-6z"/>
        <path d="m45 56h12v-10h-12zm4-6h1v-1a1 1 0 0 1 2 0v1h1a1 1 0 0 1 0 2h-1v1a1 1 0 0 1 -2 0v-1h-1a1 1 0 0 1 0-2z"/>
        <path d="m45 59a1 1 0 0 0 1 1h10a1 1 0 0 0 1-1v-1h-12z"/>
        <path d="m37.56 15.12 11.32 11.32 1.41-1.42-11.31-11.31z"/>
        <path d="m33.32 22.19 3.54 3.54a1 1 0 1 1 -1.42 1.41l-3.53-3.53-1.42 1.41 3.54 3.54a1 1 0 0 1 0 1.41.982.982 0 0 1 -.71.29.96.96 0 0 1 -.7-.29l-3.54-3.54-1.41 1.42 3.53 3.53a1 1 0 0 1 -1.41 1.42l-3.54-3.54-1.41 1.42 3.53 3.53a1 1 0 0 1 -1.41 1.42l-3.54-3.54-1.41 1.42 3.53 3.53a1 1 0 0 1 -.7 1.71 1.024 1.024 0 0 1 -.71-.29l-3.54-3.54-1.41 1.41 3.54 3.54a1 1 0 0 1 0 1.41 1.01 1.01 0 0 1 -.71.3.992.992 0 0 1 -.71-.3l-3.53-3.53-.71.71a.978.978 0 0 0 0 1.41l7.07 7.07a1.014 1.014 0 0 0 1.41 0l20.51-20.5-8.49-8.49z"/>
        <path d="m17.473 42.115h1.994v6.831h-1.994z" transform="matrix(.707 -.707 .707 .707 -26.785 26.396)"/>
        <path d="m54.003 2.997h1.994v12.007h-1.994z" transform="matrix(.707 -.707 .707 .707 9.745 41.527)"/>
        <path d="m44.64 16.54 2.82 2.82 6.83-6.82-2.83-2.83z"/>
        <path d="m15 6a9 9 0 1 0 9 9 9.011 9.011 0 0 0 -9-9zm5.707 6.707-7 7a1 1 0 0 1 -1.414 0l-3-3a1 1 0 0 1 1.414-1.414l2.293 2.293 6.293-6.293a1 1 0 0 1 1.414 1.414z"/>
        <path d="m24.275 5.079a28.038 28.038 0 0 1 7.725-1.079 27.7 27.7 0 0 1 12.551 2.964 1 1 0 1 0 .9-1.787 29.687 29.687 0 0 0 -13.451-3.177 30.045 30.045 0 0 0 -8.275 1.156 1 1 0 0 0 .55 1.923z"/>
        <path d="m8.6 50.13a1 1 0 0 0 .8-1.591 28.066 28.066 0 0 1 -4.29-24.372 1 1 0 0 0 -1.921-.559 30.07 30.07 0 0 0 4.6 26.113 1 1 0 0 0 .811.409z"/>
        <path d="m39.706 58.927a28.07 28.07 0 0 1 -24.193-4.293 1 1 0 1 0 -1.179 1.615 30.067 30.067 0 0 0 25.921 4.6 1 1 0 0 0 -.549-1.923z"/>
        <path d="m62 32a30.438 30.438 0 0 1 -.88 7.26 1.009 1.009 0 0 1 -.97.76 1.068 1.068 0 0 1 -.25-.03 1.007 1.007 0 0 1 -.73-1.21 28.094 28.094 0 0 0 .83-6.78 27.663 27.663 0 0 0 -2.92-12.46 1 1 0 0 1 1.79-.89 29.637 29.637 0 0 1 3.13 13.35z"/>
        <path d="m37.56 15.12 11.32 11.32 1.41-1.42-11.31-11.31z"/>
        <path d="m14.23 46.941a1.994 1.994 0 0 0 -.51 1.928l-10.43 10.421a1.008 1.008 0 0 0 0 1.42 1.014 1.014 0 0 0 1.42 0l10.421-10.43a1.994 1.994 0 0 0 1.928-.51l1.12-1.121-2.828-2.828z"/>
    </g>
</svg>