
<svg version="1.1" id="Layer_1" xmlns="http://www.w3.org/2000/svg" xmlns:xlink="http://www.w3.org/1999/xlink" x="0px" y="0px"
	 viewBox="0 0 100 100" enable-background="new 0 0 100 100" xml:space="preserve">
<path fill="#192954" d="M85.7,76.8c-0.7,0-1.3,0-2,0c-0.2,0-0.4-0.1-0.6-0.1c-4.6-0.5-8.2-3.8-9.2-8.3c-0.2-0.9-0.3-1.9-0.4-2.8
	c-0.9-0.2-1.8-0.5-2.7-0.6c-1.5-0.2-3-0.5-4.1,1.1c-0.6,0.9-1.1,0.8-2,0.1c-0.5-0.4-1.1-0.8-1.6-1.2c-0.4-0.3-0.7-0.3-1.2-0.2
	c-1.2,0.3-2.4,0.5-3.7,0.8c-0.2,0-0.4-0.1-0.5-0.1c-0.5-0.2-1-0.5-1.5-0.5c-3.3-0.3-6.6-0.3-9.8,0.1c-0.2,0-0.5,0-0.7,0
	c-0.5-0.1-1-0.2-1.5-0.2c-1.7,0-3.4,0.1-5.1,0.2c-0.1,0-0.2-0.1-0.3-0.1c-1-0.1-2-0.4-3-0.4c-2,0-3.9,0.2-5.9,0.3
	C28.1,64.9,28,64.8,28,63c0-0.8-0.1-1.7-0.3-2.5c-0.1-0.3-0.5-0.7-0.9-0.8c-0.7-0.1-1.4,0-2.2,0c0.6,1.2,1.1,2.3,1.6,3.5
	c0.9,2.1,1.1,4.2,0.4,6.4c-2,5.5-8.1,8.3-13.9,6.3C7,74,5,67.9,5.8,64.2c0.3-1.4,1.1-2.6,1.9-3.8c0.4-0.6,0.7-1.2,1.1-1.9
	c-0.7,0-1.2-0.1-1.7,0c-0.4,0.1-0.9,0.3-1.1,0.6C5.6,60,5,60,4.2,59.6c0,0,0-0.1,0-0.1c0.1-0.1,0.2-0.3,0.4-0.4
	c1.3-1.7,2.7-3.5,4-5.2c0.1-0.1,0.1-0.3,0.1-0.4c-0.2-0.7-0.4-1.4-0.7-2c-0.2-0.5-0.5-0.9-0.7-1.4c-0.4-1.3-0.2-1.7,1.1-2
	c0.1,0,0.1,0,0.2-0.1c0.5-0.2,0.8,0,1,0.5c0.4,0.9,0.8,1.8,1.2,2.7c0.2,0.4,0.5,0.7,0.8,1c0.1,0,0.1-0.1,0.2-0.1
	c-0.1-0.4,0-0.8-0.2-1.1c-0.5-1.4-1-2.8-1.5-4.1c-0.9-2.3-1.4-4.8-1.4-7.3c0-4.7-0.3-9.4-1.2-14.1c0-0.2,0-0.4,0-0.6
	c0.6,0,1,0.1,1.5,0.1c3.6,0.2,7.2-0.2,10.8-0.7c1.9-0.3,3.8-0.7,5.7-1c0.9,0,1.8,0,2.7,0c0.8,0.1,1.6,0.2,2.5,0.4c3,0.5,6,1,9.1,1.1
	c2,0.1,4,0.4,5.9,0.7c2.1,0.3,4.2,0.8,6.3,1.2c2.8,0.4,5.6,0.7,8.4,1c0.7,0.1,1.3,0.4,1.3,1.1c0.1,0.7-0.6,0.9-1.1,1
	c-0.7,0.2-0.8,0.6-0.6,1.1c1,3.9,2,7.8,3.1,11.7c0.4,1.3,1.3,2.3,2.6,2.6c1.5,0.3,3.1,0.5,4.6,0.5c3.5,0,7-0.1,10.4-0.2
	c1.1,0,2.3,0,3.5,0c0.2-1.1-0.2-2.3,0.7-3.3c0.6,1.6,1,3.2,1.5,4.9c0.1,0.4,0.1,0.9,0.1,1.3c0,0.9,0,1.8-0.1,2.6
	c0,0.5,0.2,0.7,0.7,0.9c2,0.5,3.9,1.1,5.8,1.8c0.7,0.2,1.2,0.7,1.9,1.2c-0.3,0.1-0.4,0.1-0.5,0.2c-1.1,0.3-2.1-0.2-3.1-0.4
	c-0.8-0.2-1.6-0.4-2.4-0.5c-0.1,1.5,0.1,2.6,1.4,3.3c2,1.2,3.6,2.8,4.5,5c0.4,0.9,0.6,1.9,0.9,2.9c0,0.7,0,1.3,0,2
	c0,0.1-0.1,0.2-0.1,0.2c-0.9,4.7-3.7,7.5-8.2,8.8C86.9,76.6,86.3,76.7,85.7,76.8z M56.6,44.9c0-0.1,0.1-0.2,0.1-0.3
	c-0.6-0.5-1.2-1.1-1.9-1.6C54,42.4,53,42,52.9,40.7c-1.3,0.4-2.5,0.7-3.3,1.8c-0.2,0.3-0.5,0.5-1.1,0.2c0.3-0.5,0.5-1.1,0.9-1.6
	c1.2-1.5,2.4-2.9,3.6-4.4c0.2-0.3,0.5-0.5,0.8-0.7c0.3-0.2,0.6-0.6,1-0.1c0.3,0.4,0,0.7-0.3,1c-0.4,0.5-0.9,0.9-1.1,1.5
	c-0.4,0.9,0,1.7,0.9,2c1.5,0.4,2.6,1.4,3.6,2.4c0.8,0.8,1.7,1.4,2.6,2.1c0.1-0.1,0.2-0.1,0.3-0.2c0.4-4.1-1-7.8-2.5-11.5
	c-0.3,0.3-0.5,0.6-0.7,0.8c-0.2,0.2-0.4,0.3-0.7,0.5c-0.1,0-0.4-0.1-0.4-0.2c-0.2-0.9-0.5-1.7-0.6-2.6c-0.1-0.7,0.5-0.9,1.1-0.5
	c0.4,0.2,0.7,0.5,1.2,0.9c-0.2-0.7-0.4-1.2-0.5-1.7c-0.1-0.4-0.3-0.5-0.7-0.6c-10.6,0-21.3-0.1-31.9-0.1c-0.2,0-0.5,0-0.7,0
	c-0.1,1.3-0.2,2.5-0.3,3.8c-0.4,3-0.9,5.9-1.3,8.9c-0.3,1.9,0.4,2.6,2.3,2.8c0.2,0,0.4,0,0.6,0c2.3,0,4.7,0,7-0.1
	c0.6,0,1.3-0.1,1.9-0.1c-0.2-1.7-1.3-3.1-1.2-4.8c1.2,0.7,2.2,1.3,3.3,1.8c1.2,0.6,2.5,1.3,3.8,1.5c1.8,0.3,3.6,0.3,5.5,0.4
	c0.6,0,1.3,0,1.7,0.3c1.9,1.1,3.9,1.2,6,1.1C54.6,45.1,55.6,45,56.6,44.9z M12.4,31.9c2.3,3.6,5.2,6.6,8.1,9.7
	c0.2-0.6,0.4-1,0.5-1.4c0.3-2,0.7-4.1,1-6.1c0.1-1.1,0.1-2.3,0.1-3.4c0-0.2-0.3-0.5-0.5-0.5C18.4,29.7,15.4,30.4,12.4,31.9z
	 M59.8,46.6c-0.1,0-0.2,0-0.2,0c-0.1,0.2-0.2,0.4-0.2,0.6c0,1.1-0.1,2.2,0,3.3c0,1.3,0.2,2.5,0.2,3.8c0,0.7-0.3,1.1-1,1.3
	c-2.2,0.5-4.5,0.6-6.7,0.3c-2-0.2-1.8,0-2-2c-0.1-1.8-0.1-3.5-0.2-5.3c0-0.6-0.1-1.2-0.7-1.7c-0.1,0.3-0.2,0.6-0.2,0.9
	c0.1,2.4,0.3,4.8,0.4,7.3c0,0.9,0.6,1.3,1.4,1.5c2.5,0.5,4.9,0.3,7.4,0c2.1-0.3,2.4-0.7,2.4-2.8c0-1.9-0.1-3.9-0.2-5.8
	C60.1,47.5,59.9,47,59.8,46.6z M36.8,46c-0.1,0-0.1,0-0.2,0.1c0,3,0,5.9,0.1,8.9c0,0.7-0.2,0.9-0.8,1c-2,0.5-4,0.2-5.9-0.2
	c-2-0.4-3.3-1.7-4-3.5c-0.2-0.4-0.4-0.9-0.5-1.3c-0.3-1.3-0.5-2.6-0.7-3.9c0-0.2-0.2-0.3-0.3-0.5c-0.1,0.2-0.3,0.3-0.3,0.5
	c-0.3,2.4,0.5,4.5,1.7,6.5c0.6,1,1.3,1.8,2.4,2.3c2.8,1.3,5.7,1.6,8.7,0.8c0.5-0.1,0.6-0.4,0.6-0.9c-0.1-2.4-0.1-4.9-0.3-7.3
	C37.3,47.5,37,46.8,36.8,46z M83.9,52.8c0-0.1,0-0.2,0-0.2c-0.3-0.1-0.7-0.4-1-0.4c-0.8,0-1.6-0.1-2.4,0.1c-4.5,1.2-8.5,3.1-11.3,7
	c-0.8,1.1-1.9,2-2.9,2.9c-0.4,0.4-0.7,0.7-0.7,1.3c0.4-0.2,0.8-0.3,1-0.5c1-1,2.1-2,3-3.1c3.2-3.9,7.2-6.4,12.4-6.7
	C82.7,53.1,83.3,52.9,83.9,52.8z M89.6,59.7c-1.7,1.2-2.4,2.9-3.1,4.8c1.7-0.9,3.2-1.7,4.8-2.6C90.7,61.1,90.2,60.5,89.6,59.7z
	 M77.1,70c1.6-0.9,3.1-1.7,4.8-2.5c-0.2-0.2-0.4-0.4-0.6-0.4c-1.6,0-3.3,0.1-5,0.1C76.6,68.1,76.8,69,77.1,70z M92.9,65.6
	c-0.2-0.7-0.3-1.3-0.4-1.9c-0.1-0.6-0.5-0.8-1.1-0.5c-1.1,0.6-2.2,1.2-3.2,1.8c-0.2,0.1-0.5,0.3-0.7,0.4c0.1,0.1,0.1,0.1,0.2,0.2
	C89.3,65.6,91,65.6,92.9,65.6z M81.2,73.6c1,0.2,1.9,0.5,3,0.7c-0.1-1.8-0.2-3.4-0.3-5.2C82.6,70.4,82,71.8,81.2,73.6z M14.3,68.5
	c-0.1-0.1-0.1-0.1-0.2-0.2c-1.4,0.8-2.8,1.6-4.2,2.4c0.6,0.7,1.1,1.4,1.8,2.1C13,71.5,13.9,70.2,14.3,68.5z M81.6,65.9
	c0-0.1,0-0.1,0.1-0.2c-1.4-1.1-3-1.8-4.8-2.3c-0.1,0.9-0.3,1.7-0.4,2.6C78.2,65.9,79.9,65.9,81.6,65.9z M82.4,64.4
	c0.1-0.1,0.1-0.1,0.2-0.2c-0.9-1.4-1.9-2.7-2.9-4.2c-0.6,0.6-1.1,1-1.6,1.5c-0.1,0.1,0,0.5,0.1,0.6C79.5,63.2,80.8,63.9,82.4,64.4z
	 M88.4,73.5c-1-1.5-1.9-2.9-2.8-4.3c-0.6,1.7-0.3,3.3,0,5C86.5,73.9,87.4,73.7,88.4,73.5z M85.1,58.4c0,1.7,0,3.1,0,4.5
	c0,0.2,0.1,0.4,0.2,0.6c0.2-0.2,0.4-0.3,0.5-0.5c0.5-0.8,0.9-1.5,1.3-2.3c0.3-0.5,0.5-1,0.9-1.7C86.9,58.8,86,58.6,85.1,58.4z
	 M83.5,63.5c0.1,0,0.2,0,0.3-0.1c0.2-1.6-0.2-3.2,0-5c-0.9,0.2-1.6,0.4-2.3,0.7c-0.5,0.2-0.7,0.5-0.3,1c0.4,0.4,0.6,1,0.9,1.4
	C82.6,62.1,83,62.8,83.5,63.5z M87.5,66.9c0,0.1,0,0.1-0.1,0.2c1.5,1.1,3.1,1.7,4.9,2.4c0.1-0.9,0.2-1.8,0.3-2.6
	C90.9,66.9,89.2,66.9,87.5,66.9z M91.6,71c-1.6-1.2-3.1-2.1-4.9-2.5c0.9,1.3,1.9,2.7,2.8,4.1C90.2,72.1,90.8,71.6,91.6,71z
	 M17.1,69.1c-0.1,0-0.1,0.1-0.2,0.1c0.1,1.2,0.1,2.3,0.2,3.5c0.1,1.2,0.3,1.4,1.5,1.1c0.4-0.1,0.7-0.2,1.2-0.4
	C19.2,71.7,18.3,70.3,17.1,69.1z M16.7,63.6c0.1,0,0.1,0,0.2,0.1c0.8-1.5,2-2.7,2.3-4.5c-0.9-0.1-1.7-0.2-2.5-0.4
	C16.7,60.4,16.7,62,16.7,63.6z M15.8,69.2c-0.1,0-0.1,0-0.2-0.1c-0.8,1.3-1.5,2.6-2.3,3.9c0.8,1,1.7,0.8,2.7,1
	C16,72.4,15.9,70.8,15.8,69.2z M20.6,59.8c-0.9,1.6-1.7,3-2.4,4.4c0.1,0.1,0.1,0.1,0.2,0.2c1.5-0.6,2.9-1.4,3.9-2.5
	C21.7,61.2,21.2,60.6,20.6,59.8z M78,71.1c0.8,0.6,1.5,1.2,2.3,1.8c0.8-1.6,1.5-3.1,2.2-4.5c0,0-0.1-0.1-0.1-0.1
	C81,69.2,79.6,70.1,78,71.1z M9.4,69.8c1.4-0.9,2.7-1.7,4-2.5c-1.5-0.1-3-0.2-4.4-0.1c-0.1,0-0.4,0.5-0.4,0.7
	C8.8,68.5,9.1,69.1,9.4,69.8z M11.5,60.2c-0.7,0.7-1.2,1.3-1.8,2c1.5,0.8,3,1.6,4.4,2.4c0.1-0.1,0.1-0.2,0.2-0.3
	C13.4,63,12.5,61.6,11.5,60.2z M13.5,65.7c-1.3-1.2-2.9-1.5-4.5-2.3c-0.1,0.8-0.3,1.4-0.4,2.1c0,0.1,0.3,0.5,0.4,0.5
	C10.5,65.9,11.9,65.8,13.5,65.7z M15.3,63.4c0.1,0,0.1,0,0.2-0.1c-0.1-1.6-0.2-3.1-0.3-4.7c-0.9,0.3-1.8,0.5-2.7,0.8
	C13.5,60.8,14.4,62.1,15.3,63.4z M22.8,70.7c-1.5-0.8-2.9-1.6-4.4-2.4c0,0.1-0.1,0.1-0.1,0.2c0.9,1.4,1.8,2.7,2.8,4.2
	C21.7,72,22.2,71.5,22.8,70.7z M19.3,66.9c0,0.1,0,0.1,0,0.2c1.3,0.8,2.7,1.5,4,2.3c1-0.7,0.7-1.6,0.7-2.5
	C22.4,66.9,20.9,66.9,19.3,66.9z M23.3,63.2c-1.5,0.3-2.7,1.2-3.8,2.1c1.5,0.1,3,0.2,4.6,0.3C23.9,64.8,23.6,64,23.3,63.2z M69,63.3
	c1.3,0.3,2.6,0.5,3.9,0.8c0.2-0.7,0.3-1.3,0.5-1.9c0-0.1-0.1-0.1-0.1-0.2c-0.9,0.7-1.9,0.4-2.8,0.3C69.8,62.3,69.3,62.6,69,63.3z"/>
</svg>
