<svg width="49" height="15" viewBox="0 0 49 15" fill="none" xmlns="http://www.w3.org/2000/svg">
<path d="M20.1257 0.244999L17.6947 14.511H21.5827L24.0157 0.244999H20.1257Z" fill="#ba0202"/>
<path d="M14.4347 0.261L10.6267 9.99L10.2207 8.521C9.46966 6.751 7.33766 4.209 4.83466 2.607L8.31666 14.504L12.4307 14.497L18.5537 0.257999L14.4347 0.261Z" fill="#ba0202"/>
<path d="M8.74466 1.282C8.51866 0.413 7.86366 0.153999 7.05066 0.122999H1.02266L0.972656 0.407C5.66366 1.545 8.76766 4.287 10.0557 7.584L8.74466 1.282Z" fill="#ba0202"/>
<path d="M31.8957 2.98C33.1677 2.96 34.0897 3.238 34.8057 3.526L35.1567 3.691L35.6827 0.598999C34.9127 0.309999 33.7057 0 32.1997 0C28.3577 0 25.6497 1.935 25.6287 4.708C25.6037 6.757 27.5577 7.901 29.0337 8.584C30.5487 9.284 31.0567 9.729 31.0497 10.354C31.0377 11.309 29.8417 11.747 28.7247 11.747C27.1677 11.747 26.3407 11.532 25.0637 11L24.5627 10.772L24.0157 13.965C24.9257 14.364 26.6047 14.707 28.3477 14.725C32.4347 14.725 35.0907 12.813 35.1187 9.85C35.1357 8.229 34.0987 6.992 31.8517 5.977C30.4917 5.315 29.6597 4.875 29.6677 4.207C29.6677 3.614 30.3737 2.98 31.8957 2.98Z" fill="#ba0202"/>
<path d="M45.6607 0.261H42.6567C41.7237 0.261 41.0297 0.515 40.6197 1.445L34.8467 14.519H38.9297C38.9297 14.519 39.5957 12.761 39.7467 12.376C40.1937 12.376 44.1607 12.382 44.7257 12.382C44.8417 12.88 45.1997 14.519 45.1997 14.519H48.8067L45.6607 0.261ZM40.8657 9.456C41.1857 8.637 42.4147 5.469 42.4147 5.469C42.3937 5.508 42.7317 4.644 42.9327 4.107L43.1947 5.337C43.1947 5.337 43.9397 8.743 44.0957 9.456H40.8657Z" fill="#ba0202"/>
</svg>
