<svg enable-background="new 0 0 512 512" height="512" viewBox="0 0 512 512" width="512" xmlns="http://www.w3.org/2000/svg" fill="#052656"><g><path d="m347.53 66.48-82.38-63.37c-2.68-2.06-5.89-3.1-9.09-3.11-3.24-.02-6.49 1.02-9.21 3.11l-82.39 63.37 91.54 62.37z"/><path d="m241 154.94-91.69-62.48-25.53 299.54h117.22z"/><path d="m271 392h117.22l-25.53-299.54-91.69 62.48z"/><path d="m497 482h-38.5c.077-3.756.161-25.474-17.185-42.815-16.717-16.712-37.435-17.174-41.425-17.185h-287.78c-3.99.011-24.708.473-41.425 17.185-17.346 17.341-17.262 39.059-17.185 42.815h-38.5c-8.229 0-15 6.771-15 15s6.771 15 15 15h482c8.229 0 15-6.771 15-15s-6.771-15-15-15z"/></g></svg>