<svg enable-background="new 0 0 512.706 512.706" height="512" viewBox="0 0 512.706 512.706" width="512" xmlns="http://www.w3.org/2000/svg" fill="#052656"><g><path d="m405.198 342.004h91.31c8.284 0 15-6.716 15-15s-6.716-15-15-15h-91.31z"/><path d="m15.198 342.004h90v-30h-90c-8.284 0-15 6.716-15 15 0 8.285 6.716 15 15 15z"/><path d="m106.487 266.88c0 8.284 6.716 15 15 15h269.422c8.284 0 15-6.716 15-15s-6.716-15-15-15v-30.232c8.284 0 15-6.716 15-15s-6.716-15-15-15h-23.649l-96.062-59.712v-57.13h59.798c8.284 0 15-6.716 15-15v-29.806c0-8.284-6.716-15-15-15h-59.798c0-8.284-6.716-15-15-15s-15 6.716-15 15v116.936l-96.062 59.712h-23.648c-8.284 0-15 6.716-15 15s6.716 15 15 15v30.232c-8.285 0-15.001 6.716-15.001 15z"/><path d="m497.508 482.706h-13.999v-109.702h-78.311v109.702h-30v-170.826h-58v170.826h-30v-170.826h-62v170.826h-30v-170.826h-60v170.826h-30v-109.702h-77v109.702h-13c-8.284 0-15 6.716-15 15s6.716 15 15 15h482.31c8.284 0 15-6.716 15-15s-6.716-15-15-15z"/></g></svg>